<?xml version="1.0" encoding="UTF-8"?>
<svg version="1.1" xmlns="http://www.w3.org/2000/svg" width="225" height="225">
<path d="M0 0 C9.14582689 -0.0466381 18.29161193 -0.08202736 27.43753242 -0.10362434 C31.68577443 -0.11399735 35.9339342 -0.12803583 40.18212891 -0.15087891 C44.29296536 -0.1728414 48.40372345 -0.18461716 52.51461411 -0.18975449 C54.07164618 -0.19340874 55.62867467 -0.20054247 57.18567276 -0.21146011 C78.60075448 -0.35545151 99.82886995 1.73585331 116.125 16.984375 C118.76729809 19.82484544 120.34336836 22.48794093 122 26 C122.5878125 27.2375 122.5878125 27.2375 123.1875 28.5 C126.76987845 39.52270291 125.404823 50.46432619 121 61 C115.17688639 71.24193937 103.2123987 75.63814425 92.578125 79.0546875 C89.01868715 79.995063 85.64764331 80.56041222 82 81 C82.53367187 81.15855469 83.06734375 81.31710938 83.6171875 81.48046875 C99.40243645 86.42360034 99.40243645 86.42360034 104 92 C104 92.66 104 93.32 104 94 C104.66 94 105.32 94 106 94 C107.191148 96.382296 108.38185075 98.76479953 109.5703125 101.1484375 C110.47334252 102.94956294 111.38383473 104.74698375 112.3046875 106.5390625 C114.74106704 111.30589203 116.89017652 116.08391226 118.82421875 121.07421875 C120.64915374 125.61533605 122.64286898 130.08151211 124.62646484 134.55517578 C125.86103717 137.34913622 127.0333744 140.10012319 128 143 C131.3 143.66 134.6 144.32 138 145 C138.33 146.32 138.66 147.64 139 149 C136.97396915 151.02603085 132.83635852 150.1880117 130.0546875 150.203125 C129.2514505 150.20882507 128.4482135 150.21452515 127.62063599 150.22039795 C125.9140963 150.22986667 124.20753818 150.23638932 122.50097656 150.24023438 C119.9065678 150.2498826 117.31297065 150.28086316 114.71875 150.3125 C113.05990053 150.31903572 111.4010454 150.32428395 109.7421875 150.328125 C108.97212372 150.3404718 108.20205994 150.3528186 107.40866089 150.36553955 C98.73058675 150.33020257 93.26266094 146.89989379 86.953125 141.0625 C83.78955865 137.72177393 82.42999822 134.28999466 81 130 C78.26960631 131.43517809 75.54091187 132.87355834 72.8125 134.3125 C71.65911133 134.91868164 71.65911133 134.91868164 70.48242188 135.53710938 C64.6134261 138.55441075 64.6134261 138.55441075 59 142 C59 142.66 59 143.32 59 144 C60.98 144.99 60.98 144.99 63 146 C63 147.32 63 148.64 63 150 C42.21 150 21.42 150 0 150 C-0.33 148.68 -0.66 147.36 -1 146 C3 144.66666667 7 143.33333333 11 142 C11.16285834 139.94014359 11.27878489 137.8765431 11.375 135.8125 C11.44460937 134.66394531 11.51421875 133.51539063 11.5859375 132.33203125 C10.90450921 128.45697571 9.72280531 127.56753266 6.6171875 125.3112793 C3.81941234 123.04273304 2.16073958 120.05106217 0.3125 117 C-0.06455078 116.39671875 -0.44160156 115.7934375 -0.83007812 115.171875 C-2.4491789 112.57227166 -4.01585839 109.97036093 -5.4609375 107.26953125 C-7.3113319 104.54090397 -9.10803798 103.36190998 -11.9375 101.6875 C-12.90300781 101.09710938 -13.86851563 100.50671875 -14.86328125 99.8984375 C-15.89839844 99.27195312 -16.93351562 98.64546875 -18 98 C-20.21871532 96.62072877 -22.42734711 95.22508931 -24.625 93.8125 C-25.62789062 93.17957031 -26.63078125 92.54664063 -27.6640625 91.89453125 C-30 90 -30 90 -30.8359375 87.76171875 C-30.91714844 86.88966797 -30.91714844 86.88966797 -31 86 C-27.535 85.505 -27.535 85.505 -24 85 C-30.05704686 80.83220018 -30.05704686 80.83220018 -36.5 77.3125 C-39 76 -39 76 -40 73 C-20.65957447 67.23404255 -20.65957447 67.23404255 -11 67 C-11.80824219 66.19175781 -12.61648437 65.38351563 -13.44921875 64.55078125 C-15.59505208 62.40494792 -17.74088542 60.25911458 -19.88671875 58.11328125 C-20.41410645 57.58734375 -20.94149414 57.06140625 -21.48486328 56.51953125 C-22.84549437 55.15495376 -24.1913137 53.77564525 -25.53515625 52.39453125 C-29.02551413 49.00373984 -32.84464941 46.08427199 -36.671875 43.0859375 C-39 41 -39 41 -40 38 C-31.50791416 37.26401923 -23.46904477 36.70473433 -15 38 C-16.010625 37.236875 -17.02125 36.47375 -18.0625 35.6875 C-24.81654892 29.87874393 -30.58592095 20.92637401 -32 12 C-31.5625 9.74609375 -31.5625 9.74609375 -31 8 C-30.38125 8.4125 -29.7625 8.825 -29.125 9.25 C-25.66134828 11.18964496 -22.14321238 12.5799922 -18.44921875 14.015625 C-15.53225977 15.18799129 -12.78025808 16.53670627 -10 18 C-9.87625 17.21625 -9.7525 16.4325 -9.625 15.625 C-9 13 -9 13 -7 11 C-4.5 10.75 -4.5 10.75 -2 11 C0.65197185 13.65197185 1.584501 16.55356766 3 20 C3.495 20.99 3.495 20.99 4 22 C6.25684543 16.63999211 7.36263859 12.8022175 7 7 C4.36 6.01 1.72 5.02 -1 4 C-0.67 2.68 -0.34 1.36 0 0 Z M49 7 C47.31680362 10.36639276 47.83683152 14.17240689 47.83203125 17.875 C47.82870285 18.75526855 47.82537445 19.63553711 47.82194519 20.54248047 C47.81687833 22.40526811 47.81453679 24.26806485 47.81469727 26.13085938 C47.81250886 28.98843226 47.79434547 31.84562037 47.77539062 34.703125 C47.7724571 36.51041534 47.77047203 38.31770752 47.76953125 40.125 C47.76234573 40.98335449 47.75516022 41.84170898 47.74775696 42.72607422 C47.54882272 47.34211527 47.54882272 47.34211527 50 51 C51.0725 50.360625 52.145 49.72125 53.25 49.0625 C55.82623154 47.52666966 58.08641768 46.68071878 61 46 C59.73993655 52.58251897 57.8205725 58.24724718 55 64.3125 C54.64421875 65.09689453 54.2884375 65.88128906 53.921875 66.68945312 C52.34182013 70.15908853 50.71780718 73.59621448 49 77 C58.39113743 78.5076681 66.01480774 77.71919578 74.4375 73.125 C77.06716351 70.94430343 79.07167065 68.81832751 81 66 C81 65.34 81 64.68 81 64 C81.66 64 82.32 64 83 64 C87.94523419 51.30576045 89.21505438 37.19155907 85 24 C84.36234679 22.65255033 83.70304425 21.3145155 83 20 C82.34 20 81.68 20 81 20 C80.505 18.02 80.505 18.02 80 16 C79.34 16 78.68 16 78 16 C77.76796875 15.38511719 77.5359375 14.77023438 77.296875 14.13671875 C74.54055308 9.59542933 67.97352396 8.50387846 63.0625 7.25 C58.37562585 6.86739803 53.69932928 6.92474384 49 7 Z M48 85 C47.9004557 86.73338564 47.86919654 88.47079083 47.8671875 90.20703125 C47.86589844 91.26857422 47.86460938 92.33011719 47.86328125 93.42382812 C47.86714844 94.54208984 47.87101562 95.66035156 47.875 96.8125 C47.87113281 97.91916016 47.86726563 99.02582031 47.86328125 100.16601562 C47.86457031 101.23142578 47.86585937 102.29683594 47.8671875 103.39453125 C47.86831543 104.37268799 47.86944336 105.35084473 47.87060547 106.35864258 C47.98869359 108.76919991 48.14869179 110.74355498 49 113 C51.49034386 114.29660434 51.49034386 114.29660434 54 115 C54.33 117.31 54.66 119.62 55 122 C58.2201566 120.84994407 59.07443836 119.88601627 61 116.9375 C63 114 63 114 67 113 C67 116.96 67 120.92 67 125 C70.63 125.33 74.26 125.66 78 126 C77.4238773 121.72656237 76.39709937 118.14127934 74.6875 114.1875 C74.23632812 113.13691406 73.78515625 112.08632812 73.3203125 111.00390625 C71.92672179 107.83328124 70.53204489 104.66374828 69.10546875 101.5078125 C68.20798064 99.47181475 67.34312201 97.42145599 66.48828125 95.3671875 C66.22200928 94.72958496 65.9557373 94.09198242 65.68139648 93.43505859 C64.90548804 91.57316023 64.13620051 89.70850694 63.3671875 87.84375 C62.30888972 84.89930756 62.30888972 84.89930756 60 84 C58.1478437 83.90415021 56.29212847 83.87016394 54.4375 83.875 C52.95056641 83.87113281 52.95056641 83.87113281 51.43359375 83.8671875 C49.05187652 83.72561569 49.05187652 83.72561569 48 85 Z " fill="#0D0E0D" transform="translate(62,38)"/>
<path d="M0 0 C9.14582689 -0.0466381 18.29161193 -0.08202736 27.43753242 -0.10362434 C31.68577443 -0.11399735 35.9339342 -0.12803583 40.18212891 -0.15087891 C44.29296536 -0.1728414 48.40372345 -0.18461716 52.51461411 -0.18975449 C54.07164618 -0.19340874 55.62867467 -0.20054247 57.18567276 -0.21146011 C78.60075448 -0.35545151 99.82886995 1.73585331 116.125 16.984375 C118.76729809 19.82484544 120.34336836 22.48794093 122 26 C122.5878125 27.2375 122.5878125 27.2375 123.1875 28.5 C126.76987845 39.52270291 125.404823 50.46432619 121 61 C115.17688639 71.24193937 103.2123987 75.63814425 92.578125 79.0546875 C89.01868715 79.995063 85.64764331 80.56041222 82 81 C82.53367187 81.15855469 83.06734375 81.31710938 83.6171875 81.48046875 C99.40243645 86.42360034 99.40243645 86.42360034 104 92 C104 92.66 104 93.32 104 94 C104.66 94 105.32 94 106 94 C107.191148 96.382296 108.38185075 98.76479953 109.5703125 101.1484375 C110.47334252 102.94956294 111.38383473 104.74698375 112.3046875 106.5390625 C114.74106704 111.30589203 116.89017652 116.08391226 118.82421875 121.07421875 C120.64915374 125.61533605 122.64286898 130.08151211 124.62646484 134.55517578 C125.86103717 137.34913622 127.0333744 140.10012319 128 143 C131.3 143.66 134.6 144.32 138 145 C138.33 146.32 138.66 147.64 139 149 C136.97396915 151.02603085 132.83635852 150.1880117 130.0546875 150.203125 C129.2514505 150.20882507 128.4482135 150.21452515 127.62063599 150.22039795 C125.9140963 150.22986667 124.20753818 150.23638932 122.50097656 150.24023438 C119.9065678 150.2498826 117.31297065 150.28086316 114.71875 150.3125 C113.05990053 150.31903572 111.4010454 150.32428395 109.7421875 150.328125 C108.97212372 150.3404718 108.20205994 150.3528186 107.40866089 150.36553955 C98.73058675 150.33020257 93.26266094 146.89989379 86.953125 141.0625 C83.78955865 137.72177393 82.42999822 134.28999466 81 130 C78.26960631 131.43517809 75.54091187 132.87355834 72.8125 134.3125 C71.65911133 134.91868164 71.65911133 134.91868164 70.48242188 135.53710938 C64.6134261 138.55441075 64.6134261 138.55441075 59 142 C59 142.66 59 143.32 59 144 C59.99 144.66 60.98 145.32 62 146 C60.24967156 145.85816304 58.49974466 145.71136571 56.75 145.5625 C55.28820312 145.44068359 55.28820312 145.44068359 53.796875 145.31640625 C51.43538247 145.04925416 49.28098935 144.64628032 47 144 C46.855625 142.906875 46.71125 141.81375 46.5625 140.6875 C46.11711896 137.06877013 46.11711896 137.06877013 45 134 C44.01 133.67 43.02 133.34 42 133 C40.6484375 130.8203125 40.6484375 130.8203125 39.375 128.125 C38.94960937 127.24070312 38.52421875 126.35640625 38.0859375 125.4453125 C36.04679728 120.85357948 35.81687475 116.88534038 35.8125 111.9375 C35.80025391 111.20466797 35.78800781 110.47183594 35.77539062 109.71679688 C35.77013701 107.80973493 35.87781728 105.90315114 36 104 C36.66 103.34 37.32 102.68 38 102 C38.49371094 102.78246094 38.98742187 103.56492187 39.49609375 104.37109375 C40.13675781 105.38300781 40.77742188 106.39492187 41.4375 107.4375 C42.07558594 108.44683594 42.71367188 109.45617187 43.37109375 110.49609375 C44.77649542 112.84553835 44.77649542 112.84553835 46 114 C46.33 103.77 46.66 93.54 47 83 C50.63 82.67 54.26 82.34 58 82 C58.66 81.34 59.32 80.68 60 80 C55.71 79.67 51.42 79.34 47 79 C47 54.91 47 30.82 47 6 C53.435 5.505 53.435 5.505 60 5 C60 4.01 60 3.02 60 2 C30.3 1.505 30.3 1.505 0 1 C0 0.67 0 0.34 0 0 Z M49 7 C47.31680362 10.36639276 47.83683152 14.17240689 47.83203125 17.875 C47.82870285 18.75526855 47.82537445 19.63553711 47.82194519 20.54248047 C47.81687833 22.40526811 47.81453679 24.26806485 47.81469727 26.13085938 C47.81250886 28.98843226 47.79434547 31.84562037 47.77539062 34.703125 C47.7724571 36.51041534 47.77047203 38.31770752 47.76953125 40.125 C47.76234573 40.98335449 47.75516022 41.84170898 47.74775696 42.72607422 C47.54882272 47.34211527 47.54882272 47.34211527 50 51 C51.0725 50.360625 52.145 49.72125 53.25 49.0625 C55.82623154 47.52666966 58.08641768 46.68071878 61 46 C59.73993655 52.58251897 57.8205725 58.24724718 55 64.3125 C54.64421875 65.09689453 54.2884375 65.88128906 53.921875 66.68945312 C52.34182013 70.15908853 50.71780718 73.59621448 49 77 C58.39113743 78.5076681 66.01480774 77.71919578 74.4375 73.125 C77.06716351 70.94430343 79.07167065 68.81832751 81 66 C81 65.34 81 64.68 81 64 C81.66 64 82.32 64 83 64 C87.94523419 51.30576045 89.21505438 37.19155907 85 24 C84.36234679 22.65255033 83.70304425 21.3145155 83 20 C82.34 20 81.68 20 81 20 C80.505 18.02 80.505 18.02 80 16 C79.34 16 78.68 16 78 16 C77.76796875 15.38511719 77.5359375 14.77023438 77.296875 14.13671875 C74.54055308 9.59542933 67.97352396 8.50387846 63.0625 7.25 C58.37562585 6.86739803 53.69932928 6.92474384 49 7 Z M48 85 C47.9004557 86.73338564 47.86919654 88.47079083 47.8671875 90.20703125 C47.86589844 91.26857422 47.86460938 92.33011719 47.86328125 93.42382812 C47.86714844 94.54208984 47.87101562 95.66035156 47.875 96.8125 C47.87113281 97.91916016 47.86726563 99.02582031 47.86328125 100.16601562 C47.86457031 101.23142578 47.86585937 102.29683594 47.8671875 103.39453125 C47.86831543 104.37268799 47.86944336 105.35084473 47.87060547 106.35864258 C47.98869359 108.76919991 48.14869179 110.74355498 49 113 C51.49034386 114.29660434 51.49034386 114.29660434 54 115 C54.33 117.31 54.66 119.62 55 122 C58.2201566 120.84994407 59.07443836 119.88601627 61 116.9375 C63 114 63 114 67 113 C67 116.96 67 120.92 67 125 C70.63 125.33 74.26 125.66 78 126 C77.4238773 121.72656237 76.39709937 118.14127934 74.6875 114.1875 C74.23632812 113.13691406 73.78515625 112.08632812 73.3203125 111.00390625 C71.92672179 107.83328124 70.53204489 104.66374828 69.10546875 101.5078125 C68.20798064 99.47181475 67.34312201 97.42145599 66.48828125 95.3671875 C66.22200928 94.72958496 65.9557373 94.09198242 65.68139648 93.43505859 C64.90548804 91.57316023 64.13620051 89.70850694 63.3671875 87.84375 C62.30888972 84.89930756 62.30888972 84.89930756 60 84 C58.1478437 83.90415021 56.29212847 83.87016394 54.4375 83.875 C52.95056641 83.87113281 52.95056641 83.87113281 51.43359375 83.8671875 C49.05187652 83.72561569 49.05187652 83.72561569 48 85 Z " fill="#131313" transform="translate(62,38)"/>
<path d="M0 0 C0.66 0 1.32 0 2 0 C3.0076952 1.7664657 4.00591714 3.53833823 5 5.3125 C5.556875 6.29863281 6.11375 7.28476562 6.6875 8.30078125 C8 11 8 11 8 14 C8.86882812 13.6390625 9.73765625 13.278125 10.6328125 12.90625 C12.36144531 12.21015625 12.36144531 12.21015625 14.125 11.5 C15.26195313 11.0359375 16.39890625 10.571875 17.5703125 10.09375 C20.9471645 9.01684959 23.48614728 8.78639193 27 9 C25.51538568 17.35095555 20.0027765 23.86073366 14.25 29.875 C11.37008395 33.8748834 10.33972168 37.85137687 9.08984375 42.5859375 C8.20992134 45.34239695 7.31706331 47.29893853 5.92578125 49.7734375 C3.46965696 54.52418126 3.33386421 58.97709792 3.25 64.25 C3.22107666 65.16934326 3.19215332 66.08868652 3.16235352 67.03588867 C3.08544525 69.69074332 3.03578268 72.34430286 3 75 C2.9901709 75.70527832 2.9803418 76.41055664 2.97021484 77.13720703 C2.93383395 80.42587021 2.93872769 83.7117192 3 87 C3.99 87 4.98 87 6 87 C6 87.99 6 88.98 6 90 C6.99 90.495 6.99 90.495 8 91 C6.9375 92.5 6.9375 92.5 5 94 C1.3125 94.1875 1.3125 94.1875 -2 94 C-0.35 94.66 1.3 95.32 3 96 C2.3125 97.9375 2.3125 97.9375 1 100 C-1.625 100.75 -1.625 100.75 -4 101 C-3.01 101.495 -3.01 101.495 -2 102 C-1.59270772 104.32156597 -1.25561323 106.6568787 -1 109 C-0.01 109.33 0.98 109.66 2 110 C1.96744792 112.05078125 1.93489583 114.1015625 1.90234375 116.15234375 C1.79438816 118.01732141 1.79438816 118.01732141 3 119 C3.08669432 120.4887186 3.10703494 121.981445 3.09765625 123.47265625 C3.09443359 124.37177734 3.09121094 125.27089844 3.08789062 126.19726562 C3.07532227 127.61555664 3.07532227 127.61555664 3.0625 129.0625 C3.05798828 130.01189453 3.05347656 130.96128906 3.04882812 131.93945312 C3.0370011 134.29303065 3.02052025 136.64648477 3 139 C1.35 139.33 -0.3 139.66 -2 140 C-1.01 139.34 -0.02 138.68 1 138 C1.59533009 135.05494561 1.59533009 135.05494561 1.5625 131.6875 C1.60503906 130.55699219 1.64757812 129.42648438 1.69140625 128.26171875 C0.89283312 124.49443873 -0.35008045 123.53694341 -3.3894043 121.31567383 C-6.17716764 119.03838769 -7.84002526 116.04979958 -9.6875 113 C-10.06455078 112.39671875 -10.44160156 111.7934375 -10.83007812 111.171875 C-12.4491789 108.57227166 -14.01585839 105.97036093 -15.4609375 103.26953125 C-17.3113319 100.54090397 -19.10803798 99.36190998 -21.9375 97.6875 C-22.90300781 97.09710938 -23.86851563 96.50671875 -24.86328125 95.8984375 C-25.89839844 95.27195312 -26.93351562 94.64546875 -28 94 C-30.21871532 92.62072877 -32.42734711 91.22508931 -34.625 89.8125 C-35.62789062 89.17957031 -36.63078125 88.54664063 -37.6640625 87.89453125 C-40 86 -40 86 -40.8359375 83.76171875 C-40.91714844 82.88966797 -40.91714844 82.88966797 -41 82 C-37.535 81.505 -37.535 81.505 -34 81 C-40.05704686 76.83220018 -40.05704686 76.83220018 -46.5 73.3125 C-49 72 -49 72 -50 69 C-30.65957447 63.23404255 -30.65957447 63.23404255 -21 63 C-21.80824219 62.19175781 -22.61648437 61.38351563 -23.44921875 60.55078125 C-25.59505208 58.40494792 -27.74088542 56.25911458 -29.88671875 54.11328125 C-30.41410645 53.58734375 -30.94149414 53.06140625 -31.48486328 52.51953125 C-32.84549437 51.15495376 -34.1913137 49.77564525 -35.53515625 48.39453125 C-39.02551413 45.00373984 -42.84464941 42.08427199 -46.671875 39.0859375 C-49 37 -49 37 -50 34 C-41.50791416 33.26401923 -33.46904477 32.70473433 -25 34 C-26.010625 33.236875 -27.02125 32.47375 -28.0625 31.6875 C-34.81654892 25.87874393 -40.58592095 16.92637401 -42 8 C-41.5625 5.74609375 -41.5625 5.74609375 -41 4 C-40.38125 4.4125 -39.7625 4.825 -39.125 5.25 C-35.66134828 7.18964496 -32.14321238 8.5799922 -28.44921875 10.015625 C-25.53225977 11.18799129 -22.78025808 12.53670627 -20 14 C-19.87625 13.21625 -19.7525 12.4325 -19.625 11.625 C-19 9 -19 9 -17 7 C-14.5 6.75 -14.5 6.75 -12 7 C-9.34802815 9.65197185 -8.415499 12.55356766 -7 16 C-6.505 16.99 -6.505 16.99 -6 18 C-3.54970669 12.28264895 -2.66733709 8.20970773 -3 2 C-2.01 2 -1.02 2 0 2 C0 1.34 0 0.68 0 0 Z " fill="#53684B" transform="translate(72,42)"/>
<path d="M0 0 C9.14582689 -0.0466381 18.29161193 -0.08202736 27.43753242 -0.10362434 C31.68577443 -0.11399735 35.9339342 -0.12803583 40.18212891 -0.15087891 C44.29296536 -0.1728414 48.40372345 -0.18461716 52.51461411 -0.18975449 C54.07164618 -0.19340874 55.62867467 -0.20054247 57.18567276 -0.21146011 C78.60075448 -0.35545151 99.82886995 1.73585331 116.125 16.984375 C118.76729809 19.82484544 120.34336836 22.48794093 122 26 C122.5878125 27.2375 122.5878125 27.2375 123.1875 28.5 C126.76987845 39.52270291 125.404823 50.46432619 121 61 C115.17688639 71.24193937 103.2123987 75.63814425 92.578125 79.0546875 C89.01868715 79.995063 85.64764331 80.56041222 82 81 C84.97 81.99 87.94 82.98 91 84 C91 84.33 91 84.66 91 85 C89.576875 85.4640625 89.576875 85.4640625 88.125 85.9375 C85.13919592 86.87394742 85.13919592 86.87394742 83 88 C83 87.34 83 86.68 83 86 C82.01 86 81.02 86 80 86 C80 85.01 80 84.02 80 83 C78.02 82.67 76.04 82.34 74 82 C73.67 80.02 73.34 78.04 73 76 C72.505 77.485 72.505 77.485 72 79 C70.33388095 79.042721 68.66617115 79.04063832 67 79 C66.67 78.67 66.34 78.34 66 78 C64.02 78.33 62.04 78.66 60 79 C55.71 79 51.42 79 47 79 C47 54.91 47 30.82 47 6 C53.435 5.505 53.435 5.505 60 5 C60 4.01 60 3.02 60 2 C30.3 1.505 30.3 1.505 0 1 C0 0.67 0 0.34 0 0 Z M49 7 C47.31680362 10.36639276 47.83683152 14.17240689 47.83203125 17.875 C47.82870285 18.75526855 47.82537445 19.63553711 47.82194519 20.54248047 C47.81687833 22.40526811 47.81453679 24.26806485 47.81469727 26.13085938 C47.81250886 28.98843226 47.79434547 31.84562037 47.77539062 34.703125 C47.7724571 36.51041534 47.77047203 38.31770752 47.76953125 40.125 C47.76234573 40.98335449 47.75516022 41.84170898 47.74775696 42.72607422 C47.54882272 47.34211527 47.54882272 47.34211527 50 51 C51.0725 50.360625 52.145 49.72125 53.25 49.0625 C55.82623154 47.52666966 58.08641768 46.68071878 61 46 C59.73993655 52.58251897 57.8205725 58.24724718 55 64.3125 C54.64421875 65.09689453 54.2884375 65.88128906 53.921875 66.68945312 C52.34182013 70.15908853 50.71780718 73.59621448 49 77 C58.39113743 78.5076681 66.01480774 77.71919578 74.4375 73.125 C77.06716351 70.94430343 79.07167065 68.81832751 81 66 C81 65.34 81 64.68 81 64 C81.66 64 82.32 64 83 64 C87.94523419 51.30576045 89.21505438 37.19155907 85 24 C84.36234679 22.65255033 83.70304425 21.3145155 83 20 C82.34 20 81.68 20 81 20 C80.505 18.02 80.505 18.02 80 16 C79.34 16 78.68 16 78 16 C77.76796875 15.38511719 77.5359375 14.77023438 77.296875 14.13671875 C74.54055308 9.59542933 67.97352396 8.50387846 63.0625 7.25 C58.37562585 6.86739803 53.69932928 6.92474384 49 7 Z " fill="#191919" transform="translate(62,38)"/>
<path d="M0 0 C0.66 0 1.32 0 2 0 C3.0076952 1.7664657 4.00591714 3.53833823 5 5.3125 C5.556875 6.29863281 6.11375 7.28476562 6.6875 8.30078125 C8 11 8 11 8 14 C8.86882812 13.6390625 9.73765625 13.278125 10.6328125 12.90625 C12.36144531 12.21015625 12.36144531 12.21015625 14.125 11.5 C15.26195312 11.0359375 16.39890625 10.571875 17.5703125 10.09375 C20.9471645 9.01684959 23.48614728 8.78639193 27 9 C25.51538568 17.35095555 20.0027765 23.86073366 14.25 29.875 C11.32253233 33.94092732 10.31080388 38.03353401 8.9765625 42.828125 C8.14086259 45.54247829 7.21594341 47.68159492 5.8125 50.125 C3.25743027 54.79426469 3.19227015 59.7702519 3 65 C-3.46712188 63.83805848 -9.09622349 61.8751252 -15 59 C-11.2735915 57.95297814 -7.86986958 57.92557943 -4 58 C-3.67 56.68 -3.34 55.36 -3 54 C-17.70032385 46.78726229 -17.70032385 46.78726229 -33 41 C-32.505 40.54625 -32.01 40.0925 -31.5 39.625 C-29.77390663 38.12364481 -29.77390663 38.12364481 -30 36 C-21.03164614 36.38163208 -13.11554834 38.31405954 -6 44 C-6 42.68 -6 41.36 -6 40 C-7.11375 39.95875 -8.2275 39.9175 -9.375 39.875 C-15.36387758 39.14907545 -21.34244917 35.818827 -25.48046875 31.4296875 C-26.98908242 29.81788421 -26.98908242 29.81788421 -29.4609375 29.12890625 C-34.98450944 26.67304119 -37.7873041 19.73062817 -40.1484375 14.4140625 C-41.57340347 10.47906473 -42.31229949 8.07359634 -41 4 C-40.38125 4.4125 -39.7625 4.825 -39.125 5.25 C-35.66134828 7.18964496 -32.14321238 8.5799922 -28.44921875 10.015625 C-25.53225977 11.18799129 -22.78025808 12.53670627 -20 14 C-19.87625 13.21625 -19.7525 12.4325 -19.625 11.625 C-19 9 -19 9 -17 7 C-14.5 6.75 -14.5 6.75 -12 7 C-9.34802815 9.65197185 -8.415499 12.55356766 -7 16 C-6.505 16.99 -6.505 16.99 -6 18 C-3.54970669 12.28264895 -2.66733709 8.20970773 -3 2 C-2.01 2 -1.02 2 0 2 C0 1.34 0 0.68 0 0 Z " fill="#799A7E" transform="translate(72,42)"/>
<path d="M0 0 C4.95 0 9.9 0 15 0 C15 0.66 15 1.32 15 2 C10.71 2 6.42 2 2 2 C2 11.24 2 20.48 2 30 C3.65 30.33 5.3 30.66 7 31 C8 32 8 32 8.0625 35.5625 C8.041875 36.696875 8.02125 37.83125 8 39 C10.85320997 36.91792786 12.8027826 35.34710263 14.5625 32.25 C15.036875 31.5075 15.51125 30.765 16 30 C17.32 30 18.64 30 20 30 C20 33.96 20 37.92 20 42 C23.63 42.33 27.26 42.66 31 43 C30.505 40.03 30.505 40.03 30 37 C32.52631142 40.12781414 34.42373366 43.29577411 36 47 C35.67 47.99 35.34 48.98 35 50 C34.67 49.01 34.34 48.02 34 47 C31.26960631 48.43517809 28.54091187 49.87355834 25.8125 51.3125 C25.04357422 51.71662109 24.27464844 52.12074219 23.48242188 52.53710938 C17.6134261 55.55441075 17.6134261 55.55441075 12 59 C12 59.66 12 60.32 12 61 C12.99 61.66 13.98 62.32 15 63 C13.24967156 62.85816304 11.49974466 62.71136571 9.75 62.5625 C8.77546875 62.48128906 7.8009375 62.40007812 6.796875 62.31640625 C4.43538247 62.04925416 2.28098935 61.64628032 0 61 C-0.144375 59.906875 -0.28875 58.81375 -0.4375 57.6875 C-0.88288104 54.06877013 -0.88288104 54.06877013 -2 51 C-2.99 50.67 -3.98 50.34 -5 50 C-6.3515625 47.8203125 -6.3515625 47.8203125 -7.625 45.125 C-8.05039063 44.24070313 -8.47578125 43.35640625 -8.9140625 42.4453125 C-10.95320272 37.85357948 -11.18312525 33.88534038 -11.1875 28.9375 C-11.19974609 28.20466797 -11.21199219 27.47183594 -11.22460938 26.71679688 C-11.22986299 24.80973493 -11.12218272 22.90315114 -11 21 C-10.34 20.34 -9.68 19.68 -9 19 C-8.50628906 19.78246094 -8.01257813 20.56492188 -7.50390625 21.37109375 C-6.86324219 22.38300781 -6.22257812 23.39492187 -5.5625 24.4375 C-4.92441406 25.44683594 -4.28632812 26.45617187 -3.62890625 27.49609375 C-2.22350458 29.84553835 -2.22350458 29.84553835 -1 31 C-0.67 20.77 -0.34 10.54 0 0 Z " fill="#ABC2AC" transform="translate(109,121)"/>
<path d="M0 0 C0.66 0 1.32 0 2 0 C3.0076952 1.7664657 4.00591714 3.53833823 5 5.3125 C5.556875 6.29863281 6.11375 7.28476562 6.6875 8.30078125 C8 11 8 11 8 14 C8.86882812 13.6390625 9.73765625 13.278125 10.6328125 12.90625 C12.36144531 12.21015625 12.36144531 12.21015625 14.125 11.5 C15.26195312 11.0359375 16.39890625 10.571875 17.5703125 10.09375 C20.9471645 9.01684959 23.48614728 8.78639193 27 9 C25.70442576 16.28760511 21.47629868 21.26204185 17 27 C16.51789063 27.6496875 16.03578125 28.299375 15.5390625 28.96875 C12.99242539 32.27775618 10.87887433 33.59929538 7 35 C6.67 35.99 6.34 36.98 6 38 C4.4765625 39.16796875 4.4765625 39.16796875 2.625 40.1875 C2.01914063 40.53167969 1.41328125 40.87585938 0.7890625 41.23046875 C-1 42 -1 42 -4 42 C-3.55491959 36.95575532 -1.39019075 34.55556591 2 31 C2.66 31 3.32 31 4 31 C4 30.34 4 29.68 4 29 C3.34 29 2.68 29 2 29 C1.34 30.32 0.68 31.64 0 33 C-0.66 33 -1.32 33 -2 33 C-2.495 33.99 -2.495 33.99 -3 35 C-6 35 -6 35 -7.6875 33.6875 C-9 32 -9 32 -9 29 C-9.66 28.67 -10.32 28.34 -11 28 C-10.67 27.34 -10.34 26.68 -10 26 C-10.66 26 -11.32 26 -12 26 C-12.33 26.99 -12.66 27.98 -13 29 C-13.99 29 -14.98 29 -16 29 C-15.896875 27.783125 -15.79375 26.56625 -15.6875 25.3125 C-15.70563124 21.89173971 -15.915815 21.11838516 -18 18.1875 C-21.59785646 15.564063 -24.77150759 14.36171789 -29 13 C-29 12.34 -29 11.68 -29 11 C-31.31 10.34 -33.62 9.68 -36 9 C-33.04893565 7.74651393 -32.02593537 7.98955194 -28.984375 9.21484375 C-27.91703125 9.78332031 -26.8496875 10.35179687 -25.75 10.9375 C-24.67234375 11.50339844 -23.5946875 12.06929687 -22.484375 12.65234375 C-21.66453125 13.09707031 -20.8446875 13.54179688 -20 14 C-19.87625 13.21625 -19.7525 12.4325 -19.625 11.625 C-19 9 -19 9 -17 7 C-14.5 6.75 -14.5 6.75 -12 7 C-9.34802815 9.65197185 -8.415499 12.55356766 -7 16 C-6.67 16.66 -6.34 17.32 -6 18 C-3.54970669 12.28264895 -2.66733709 8.20970773 -3 2 C-2.01 2 -1.02 2 0 2 C0 1.34 0 0.68 0 0 Z " fill="#B7CDB5" transform="translate(72,42)"/>
<path d="M0 0 C0 3.96 0 7.92 0 12 C0.99 12 1.98 12 3 12 C3 12.99 3 13.98 3 15 C3.66 15.33 4.32 15.66 5 16 C3.9375 17.5 3.9375 17.5 2 19 C-1.6875 19.1875 -1.6875 19.1875 -5 19 C-2.525 19.99 -2.525 19.99 0 21 C-0.6875 22.9375 -0.6875 22.9375 -2 25 C-4.625 25.75 -4.625 25.75 -7 26 C-6.34 26.33 -5.68 26.66 -5 27 C-4.59270772 29.32156597 -4.25561323 31.6568787 -4 34 C-3.01 34.33 -2.02 34.66 -1 35 C-1.03255208 37.05078125 -1.06510417 39.1015625 -1.09765625 41.15234375 C-1.20561184 43.01732141 -1.20561184 43.01732141 0 44 C0.08669432 45.4887186 0.10703494 46.981445 0.09765625 48.47265625 C0.09443359 49.37177734 0.09121094 50.27089844 0.08789062 51.19726562 C0.07532227 52.61555664 0.07532227 52.61555664 0.0625 54.0625 C0.05798828 55.01189453 0.05347656 55.96128906 0.04882812 56.93945312 C0.0370011 59.29303065 0.02052025 61.64648477 0 64 C-2.475 64.495 -2.475 64.495 -5 65 C-4.01 64.34 -3.02 63.68 -2 63 C-1.40466991 60.05494561 -1.40466991 60.05494561 -1.4375 56.6875 C-1.39496094 55.55699219 -1.35242188 54.42648438 -1.30859375 53.26171875 C-2.10716688 49.49443873 -3.35008045 48.53694341 -6.3894043 46.31567383 C-9.17716764 44.03838769 -10.84002526 41.04979958 -12.6875 38 C-13.06455078 37.39671875 -13.44160156 36.7934375 -13.83007812 36.171875 C-15.4491789 33.57227166 -17.01585839 30.97036093 -18.4609375 28.26953125 C-20.3113319 25.54090397 -22.10803798 24.36190998 -24.9375 22.6875 C-25.90300781 22.09839844 -26.86851563 21.50929687 -27.86328125 20.90234375 C-28.89839844 20.27457031 -29.93351562 19.64679688 -31 19 C-33.2177374 17.5981008 -35.42633584 16.1816272 -37.625 14.75 C-38.62789062 14.10546875 -39.63078125 13.4609375 -40.6640625 12.796875 C-43 11 -43 11 -44 8 C-35.585 7.505 -35.585 7.505 -27 7 C-28.98 7.99 -28.98 7.99 -31 9 C-29.35 9.33 -27.7 9.66 -26 10 C-26 9.34 -26 8.68 -26 8 C-25.02160156 8.23396484 -25.02160156 8.23396484 -24.0234375 8.47265625 C-17.02783454 10.04610373 -17.02783454 10.04610373 -10 9 C-9.67 8.34 -9.34 7.68 -9 7 C-9.99 6.34 -10.98 5.68 -12 5 C-11.67 4.01 -11.34 3.02 -11 2 C-9.00390625 1.26953125 -9.00390625 1.26953125 -6.5625 0.8125 C-5.75941406 0.65394531 -4.95632812 0.49539062 -4.12890625 0.33203125 C-2 0 -2 0 0 0 Z " fill="#152615" transform="translate(75,117)"/>
<path d="M0 0 C3.84534619 1.81367802 7.20137355 4.14008594 10.68359375 6.5625 C15.21023404 9.37161235 18.67493346 10.24767751 24 10 C24 11.98 24 13.96 24 16 C22.83984375 15.38511719 22.83984375 15.38511719 21.65625 14.7578125 C12.27023978 9.49837571 12.27023978 9.49837571 1.84375 8.27734375 C1.2353125 8.51582031 0.626875 8.75429687 0 9 C-0.33 9.99 -0.66 10.98 -1 12 C-0.18917969 12.29132813 0.62164062 12.58265625 1.45703125 12.8828125 C9.02595967 15.68481394 16.02905513 18.93477965 23 23 C23 23.99 23 24.98 23 26 C20.68449829 28.31550171 20.15282885 28.34178912 17 28.4375 C9.07152529 28.27125779 2.94349046 23.86285583 -3 19 C-3.99 19 -4.98 19 -6 19 C-8.27987404 17.47814778 -10.4107974 15.93538202 -12.5625 14.25 C-13.15224609 13.8065625 -13.74199219 13.363125 -14.34960938 12.90625 C-17.37141373 10.5685629 -19.69335555 8.65518838 -21 5 C-12.50791416 4.26401923 -4.46904477 3.70473433 4 5 C2.68 3.35 1.36 1.7 0 0 Z " fill="#C5D5C3" transform="translate(43,71)"/>
<path d="M0 0 C4.95 0 9.9 0 15 0 C15 0.66 15 1.32 15 2 C10.71 2 6.42 2 2 2 C2.01160156 3.50949219 2.02320312 5.01898438 2.03515625 6.57421875 C2.20743572 37.59738042 2.20743572 37.59738042 -2 44 C-1.34 44 -0.68 44 0 44 C0.33 43.34 0.66 42.68 1 42 C2.06546953 45.1964086 2.07427838 47.65747276 2 51 C5.24983135 49.91215032 5.24983135 49.91215032 8 48 C9.51928038 47.92820036 11.04167482 47.91607993 12.5625 47.9375 C13.38878906 47.94652344 14.21507813 47.95554688 15.06640625 47.96484375 C15.70449219 47.97644531 16.34257813 47.98804688 17 48 C14.49751135 49.66832577 12.58850813 50.62381674 9.8125 51.625 C8.73935547 52.01558594 8.73935547 52.01558594 7.64453125 52.4140625 C7.10183594 52.60742188 6.55914062 52.80078125 6 53 C8.31 53.66 10.62 54.32 13 55 C12.67 56.98 12.34 58.96 12 61 C12.99 61.66 13.98 62.32 15 63 C13.24967156 62.85816304 11.49974466 62.71136571 9.75 62.5625 C8.77546875 62.48128906 7.8009375 62.40007812 6.796875 62.31640625 C4.43538247 62.04925416 2.28098935 61.64628032 0 61 C-0.144375 59.906875 -0.28875 58.81375 -0.4375 57.6875 C-0.88288104 54.06877013 -0.88288104 54.06877013 -2 51 C-2.99 50.67 -3.98 50.34 -5 50 C-6.3515625 47.8203125 -6.3515625 47.8203125 -7.625 45.125 C-8.05039063 44.24070313 -8.47578125 43.35640625 -8.9140625 42.4453125 C-10.95320272 37.85357948 -11.18312525 33.88534038 -11.1875 28.9375 C-11.19974609 28.20466797 -11.21199219 27.47183594 -11.22460938 26.71679688 C-11.22986299 24.80973493 -11.12218272 22.90315114 -11 21 C-10.34 20.34 -9.68 19.68 -9 19 C-8.50628906 19.78246094 -8.01257813 20.56492188 -7.50390625 21.37109375 C-6.86324219 22.38300781 -6.22257812 23.39492187 -5.5625 24.4375 C-4.92441406 25.44683594 -4.28632812 26.45617187 -3.62890625 27.49609375 C-2.22350458 29.84553835 -2.22350458 29.84553835 -1 31 C-0.67 20.77 -0.34 10.54 0 0 Z " fill="#83A78A" transform="translate(109,121)"/>
<path d="M0 0 C19.125 0 19.125 0 25 3 C21.79810566 4.06729811 21.10637562 3.9586964 18 3.125 C12.05466512 1.67323404 12.05466512 1.67323404 2 1 C2 14.86 2 28.72 2 43 C5.05118139 43.26204871 5.05118139 43.26204871 7.4375 41.5 C10 40 10 40 14 40 C13.55145845 46.91444051 12.01408494 52.1374913 9.0625 58.375 C8.70220703 59.16777344 8.34191406 59.96054688 7.97070312 60.77734375 C6.47070184 64.04253991 4.99965652 67.00051522 3 70 C6.3 70.66 9.6 71.32 13 72 C13 72.33 13 72.66 13 73 C8.71 73 4.42 73 0 73 C0 48.91 0 24.82 0 0 Z " fill="#9FAAA1" transform="translate(109,44)"/>
<path d="M0 0 C10.54190676 0.44859178 18.5130133 3.10189724 26.40625 10.21875 C28 12 28 12 30 16 C29.505 11.545 29.505 11.545 29 7 C34.51838879 7.47985989 34.51838879 7.47985989 36.5625 9.6875 C37 12 37 12 35.6875 14.5625 C33.37079312 19.28171772 33.26800334 23.80628012 33 29 C26.53287812 27.83805848 20.90377651 25.8751252 15 23 C18.7264085 21.95297814 22.13013042 21.92557943 26 22 C26.33 20.68 26.66 19.36 27 18 C12.29967615 10.78726229 12.29967615 10.78726229 -3 5 C-2.505 4.54625 -2.01 4.0925 -1.5 3.625 C0.22609337 2.12364481 0.22609337 2.12364481 0 0 Z " fill="#415045" transform="translate(42,78)"/>
<path d="M0 0 C0.99 0 1.98 0 3 0 C3.08172652 1.72836466 3.13951818 3.45786959 3.1875 5.1875 C3.23970703 6.63189453 3.23970703 6.63189453 3.29296875 8.10546875 C3 11 3 11 1.49609375 13.3828125 C-0.53854106 16.94209533 -0.26031883 19.62395521 -0.125 23.6875 C0.10519248 30.78961504 0.10519248 30.78961504 -1 33 C-3 33 -3 33 -4.625 31.6875 C-6 30 -6 30 -6 27 C-6.66 26.67 -7.32 26.34 -8 26 C-7.67 25.34 -7.34 24.68 -7 24 C-7.66 24 -8.32 24 -9 24 C-9.33 24.99 -9.66 25.98 -10 27 C-10.99 27 -11.98 27 -13 27 C-12.896875 25.783125 -12.79375 24.56625 -12.6875 23.3125 C-12.70563124 19.89173971 -12.915815 19.11838516 -15 16.1875 C-18.59785646 13.564063 -21.77150759 12.36171789 -26 11 C-26 10.34 -26 9.68 -26 9 C-28.31 8.34 -30.62 7.68 -33 7 C-30.04893565 5.74651393 -29.02593537 5.98955194 -25.984375 7.21484375 C-24.38335937 8.06755859 -24.38335937 8.06755859 -22.75 8.9375 C-21.67234375 9.50339844 -20.5946875 10.06929687 -19.484375 10.65234375 C-18.66453125 11.09707031 -17.8446875 11.54179688 -17 12 C-16.87625 11.21625 -16.7525 10.4325 -16.625 9.625 C-16 7 -16 7 -14 5 C-11.5 4.75 -11.5 4.75 -9 5 C-6.34802815 7.65197185 -5.415499 10.55356766 -4 14 C-3.67 14.66 -3.34 15.32 -3 16 C-0.54970669 10.28264895 0.33266291 6.20970773 0 0 Z " fill="#E4EBE1" transform="translate(69,44)"/>
<path d="M0 0 C5.44876003 1.72066106 10.71169451 3.84705349 16 6 C16.33 8.31 16.66 10.62 17 13 C17.99 13.33 18.98 13.66 20 14 C19.96744792 16.05078125 19.93489583 18.1015625 19.90234375 20.15234375 C19.79438816 22.01732141 19.79438816 22.01732141 21 23 C21.08669432 24.4887186 21.10703494 25.981445 21.09765625 27.47265625 C21.09443359 28.37177734 21.09121094 29.27089844 21.08789062 30.19726562 C21.07951172 31.14279297 21.07113281 32.08832031 21.0625 33.0625 C21.05798828 34.01189453 21.05347656 34.96128906 21.04882812 35.93945312 C21.0370011 38.29303065 21.02052025 40.64648477 21 43 C18.525 43.495 18.525 43.495 16 44 C16.99 43.34 17.98 42.68 19 42 C19.59533009 39.05494561 19.59533009 39.05494561 19.5625 35.6875 C19.60503906 34.55699219 19.64757812 33.42648438 19.69140625 32.26171875 C18.89283312 28.49443873 17.64991955 27.53694341 14.6105957 25.31567383 C11.82283236 23.03838769 10.15997474 20.04979958 8.3125 17 C7.93544922 16.39671875 7.55839844 15.7934375 7.16992188 15.171875 C5.52276485 12.52722498 3.91755325 9.86007277 2.3359375 7.17578125 C1.07236976 5.11786537 -0.21634941 3.61377911 -2 2 C-1.34 1.67 -0.68 1.34 0 1 C0 0.67 0 0.34 0 0 Z " fill="#748B5C" transform="translate(54,138)"/>
<path d="M0 0 C3.86672902 3.22227418 7.47854807 6.46741518 10.9375 10.125 C18.03721296 17.23828794 25.18320087 18.75653878 35 20 C34.67 21.32 34.34 22.64 34 24 C32.80375 23.484375 31.6075 22.96875 30.375 22.4375 C26.56013296 20.99421993 23.99333916 20.83121781 20 22 C19.505 22.495 19.505 22.495 19 23 C17.56078444 22.90794615 16.12567735 22.750449 14.6953125 22.56640625 C8.74092563 21.90563264 2.85987699 21.88800674 -3.125 21.9375 C-4.176875 21.94201172 -5.22875 21.94652344 -6.3125 21.95117188 C-8.87506221 21.96281989 -11.43749877 21.97917447 -14 22 C-12.68 22.99 -11.36 23.98 -10 25 C-12.375 24.75 -12.375 24.75 -15 24 C-16.1640625 21.953125 -16.1640625 21.953125 -17 20 C2.34042553 14.23404255 2.34042553 14.23404255 12 14 C10.700625 12.73542969 10.700625 12.73542969 9.375 11.4453125 C8.24973959 10.33880643 7.12475372 9.23202112 6 8.125 C5.42765625 7.56941406 4.8553125 7.01382813 4.265625 6.44140625 C2.80549218 4.99865596 1.39850702 3.5025626 0 2 C0 1.34 0 0.68 0 0 Z " fill="#A0B696" transform="translate(39,91)"/>
<path d="M0 0 C0.33 1.32 0.66 2.64 1 4 C1.804375 4.144375 2.60875 4.28875 3.4375 4.4375 C6 5 6 5 7 6 C7.04092937 8.33297433 7.04241723 10.66705225 7 13 C9.85320997 10.91792786 11.8027826 9.34710263 13.5625 6.25 C14.036875 5.5075 14.51125 4.765 15 4 C16.32 4 17.64 4 19 4 C19 7.96 19 11.92 19 16 C22.63 16.33 26.26 16.66 30 17 C29.505 14.03 29.505 14.03 29 11 C31.52631142 14.12781414 33.42373366 17.29577411 35 21 C34.505 22.485 34.505 22.485 34 24 C33.505 22.515 33.505 22.515 33 21 C32.01 21.66 31.02 22.32 30 23 C29.01 22.67 28.02 22.34 27 22 C27.99 21.01 28.98 20.02 30 19 C25.71 18.34 21.42 17.68 17 17 C16.505 12.05 16.505 12.05 16 7 C15.0925 8.0725 14.185 9.145 13.25 10.25 C11.48193125 12.33081676 9.76672943 14.21383135 7.75 16.0625 C5.76225118 18.00275994 5.76225118 18.00275994 4.9375 21.1875 C4.628125 22.115625 4.31875 23.04375 4 24 C3.01 24.33 2.02 24.66 1 25 C0.67 22.36 0.34 19.72 0 17 C-0.99 17.33 -1.98 17.66 -3 18 C-2.49396008 15.83125748 -2.00016187 14.00032373 -1 12 C-0.77141886 9.9625237 -0.58975722 7.91959697 -0.4375 5.875 C-0.35371094 4.77929688 -0.26992187 3.68359375 -0.18359375 2.5546875 C-0.12300781 1.71164063 -0.06242187 0.86859375 0 0 Z " fill="#ECECE4" transform="translate(110,147)"/>
<path d="M0 0 C-0.33 0.66 -0.66 1.32 -1 2 C-0.01 2.33 0.98 2.66 2 3 C1.8125 5.3125 1.8125 5.3125 1 8 C-1.5 9.6875 -1.5 9.6875 -4 11 C-4.33 11.66 -4.66 12.32 -5 13 C-5.99 12.67 -6.98 12.34 -8 12 C-8.99 12.495 -8.99 12.495 -10 13 C-10 12.34 -10 11.68 -10 11 C-10.350625 11.495 -10.70125 11.99 -11.0625 12.5 C-13.94374289 14.73063966 -16.47009026 14.19980621 -20 14 C-20.33 15.32 -20.66 16.64 -21 18 C-21.33926347 14.43773359 -21.12670769 12.27645314 -19.625 9 C-14.99702975 3.71089115 -7.24872754 -2.2496051 0 0 Z " fill="#A3B7A3" transform="translate(92,54)"/>
<path d="M0 0 C7.36095182 0.31323199 13.30883089 1.93914605 20 5 C19.67 5.99 19.34 6.98 19 8 C19.78375 8.268125 20.5675 8.53625 21.375 8.8125 C24 10 24 10 26 13 C25.01 13.99 24.02 14.98 23 16 C21.56720703 15.31164062 21.56720703 15.31164062 20.10546875 14.609375 C12.52379116 10.99994192 4.97570331 7.66962211 -3 5 C-2.505 4.54625 -2.01 4.0925 -1.5 3.625 C0.22609337 2.12364481 0.22609337 2.12364481 0 0 Z " fill="#6A876C" transform="translate(42,78)"/>
<path d="M0 0 C3.84534619 1.81367802 7.20137355 4.14008594 10.68359375 6.5625 C15.21023404 9.37161235 18.67493346 10.24767751 24 10 C24 11.98 24 13.96 24 16 C23.30777344 15.60167969 22.61554688 15.20335938 21.90234375 14.79296875 C13.66677345 10.33339115 6.1698723 8.42809487 -3 7 C-3 7.66 -3 8.32 -3 9 C-6 11 -6 11 -9 12 C-9.66 11.67 -10.32 11.34 -11 11 C-10.67 12.32 -10.34 13.64 -10 15 C-12.93879484 13.64763423 -15.29232911 12.10057341 -17.75 10 C-18.36359375 9.484375 -18.9771875 8.96875 -19.609375 8.4375 C-21 7 -21 7 -21 5 C-12.50791416 4.26401923 -4.46904477 3.70473433 4 5 C2.68 3.35 1.36 1.7 0 0 Z " fill="#CBE7D1" transform="translate(43,71)"/>
<path d="M0 0 C3.20618551 0.73693371 6.39907466 1.50807095 9.5859375 2.32421875 C9.5859375 2.98421875 9.5859375 3.64421875 9.5859375 4.32421875 C8.28858243 5.37047284 6.95326778 6.37123098 5.5859375 7.32421875 C5.2559375 7.65421875 4.9259375 7.98421875 4.5859375 8.32421875 C2.88029972 8.4816248 1.16866506 8.57515267 -0.54296875 8.640625 C-2.09467773 8.7034668 -2.09467773 8.7034668 -3.67773438 8.76757812 C-5.3106543 8.82655273 -5.3106543 8.82655273 -6.9765625 8.88671875 C-8.6152832 8.95149414 -8.6152832 8.95149414 -10.28710938 9.01757812 C-12.99595814 9.12403943 -15.70490242 9.22605391 -18.4140625 9.32421875 C-18.4140625 8.99421875 -18.4140625 8.66421875 -18.4140625 8.32421875 C-14.9490625 7.82921875 -14.9490625 7.82921875 -11.4140625 7.32421875 C-14.3840625 5.34421875 -17.3540625 3.36421875 -20.4140625 1.32421875 C-17.4140625 0.32421875 -17.4140625 0.32421875 -14.4140625 1.32421875 C-9.66514678 -1.84172506 -5.38523401 -1.06595593 0 0 Z " fill="#A9BF9C" transform="translate(49.4140625,115.67578125)"/>
<path d="M0 0 C0.73605469 0.48210937 1.47210938 0.96421875 2.23046875 1.4609375 C3.20628906 2.09257813 4.18210937 2.72421875 5.1875 3.375 C6.63189453 4.31472656 6.63189453 4.31472656 8.10546875 5.2734375 C12.80336882 8.07569368 16.47397359 9.58787515 22 9 C24.24755753 7.6483633 24.24755753 7.6483633 26 6 C26.66 5.67 27.32 5.34 28 5 C28.99 5.99 29.98 6.98 31 8 C30.34 8 29.68 8 29 8 C29 8.99 29 9.98 29 11 C24.545 11.495 24.545 11.495 20 12 C21.11375 12.45375 22.2275 12.9075 23.375 13.375 C27 15 27 15 29 17 C28.34 17.66 27.68 18.32 27 19 C26.01 19 25.02 19 24 19 C23.67 19.66 23.34 20.32 23 21 C16.29650863 17.99498663 11.57413672 13.95957438 6.4375 8.8125 C5.80569824 8.1819873 5.17389648 7.55147461 4.52294922 6.90185547 C0 2.26953018 0 2.26953018 0 0 Z " fill="#4A7155" transform="translate(39,89)"/>
<path d="M0 0 C0.78375 0.144375 1.5675 0.28875 2.375 0.4375 C5.10476168 0.86108371 7.6935447 1.12010247 10.4375 1.3125 C18.15893084 2.04115862 28.43055766 3.69971286 35 8 C35.495 9.485 35.495 9.485 36 11 C35.67 11.66 35.34 12.32 35 13 C29.25 13.125 29.25 13.125 27 12 C27 11.01 27 10.02 27 9 C24.28450846 6.69328085 24.28450846 6.69328085 21.8125 7.375 C20.9153125 7.684375 20.9153125 7.684375 20 8 C20 9.65 20 11.3 20 13 C15.22123889 11.37614914 11.33331323 8.74237077 7.1875 5.9375 C6.49462891 5.47794922 5.80175781 5.01839844 5.08789062 4.54492188 C3.37141668 3.39327778 1.68286015 2.20022856 0 1 C0 0.67 0 0.34 0 0 Z " fill="#5C8560" transform="translate(32,127)"/>
<path d="M0 0 C0.66 0 1.32 0 2 0 C3.0076952 1.7664657 4.00591714 3.53833823 5 5.3125 C5.8353125 6.79169922 5.8353125 6.79169922 6.6875 8.30078125 C8 11 8 11 8 14 C8.66 14.33 9.32 14.66 10 15 C8.96875 15.4125 7.9375 15.825 6.875 16.25 C1.30639631 19.33484767 -0.59596354 25.3993876 -3 31 C-3.33 31 -3.66 31 -4 31 C-4.08150744 28.93816367 -4.1394194 26.87538651 -4.1875 24.8125 C-4.22230469 23.66394531 -4.25710937 22.51539062 -4.29296875 21.33203125 C-3.96858247 17.64267793 -2.90152869 16.10453663 -1 13 C-0.42845561 9.65501601 -0.42845561 9.65501601 -0.3125 6.1875 C-0.21388672 4.44533203 -0.21388672 4.44533203 -0.11328125 2.66796875 C-0.05720703 1.34732422 -0.05720703 1.34732422 0 0 Z " fill="#68836B" transform="translate(72,42)"/>
<path d="M0 0 C1.875 0.75 1.875 0.75 3.875 2.75 C1.55643083 4.29571278 -0.63138429 5.54618552 -3.125 6.75 C-3.125 6.42 -3.125 6.09 -3.125 5.75 C-4.01638672 5.76740234 -4.01638672 5.76740234 -4.92578125 5.78515625 C-11.38395513 5.85546296 -17.70489613 5.43350916 -24.125 4.75 C-24.125 5.08 -24.125 5.41 -24.125 5.75 C-29.11659355 7.13065353 -31.49962186 6.88272883 -36.0625 4.3125 C-37.42769009 3.47606467 -38.7858781 2.62756515 -40.125 1.75 C-40.125 1.42 -40.125 1.09 -40.125 0.75 C-36.14584915 0.72065856 -32.16672663 0.70308735 -28.1875 0.6875 C-27.07052734 0.67912109 -25.95355469 0.67074219 -24.80273438 0.66210938 C-19.82515963 0.64751238 -14.9934677 0.69213039 -10.05859375 1.37890625 C-5.89448418 1.77174678 -3.75115305 -0.44131212 0 0 Z " fill="#4F6E57" transform="translate(64.125,111.25)"/>
<path d="M0 0 C0 1.98 0 3.96 0 6 C3.24983135 4.91215032 3.24983135 4.91215032 6 3 C7.51928038 2.92820036 9.04167482 2.91607993 10.5625 2.9375 C11.38878906 2.94652344 12.21507813 2.95554688 13.06640625 2.96484375 C13.70449219 2.97644531 14.34257813 2.98804688 15 3 C12.49751135 4.66832577 10.58850813 5.62381674 7.8125 6.625 C6.73935547 7.01558594 6.73935547 7.01558594 5.64453125 7.4140625 C5.10183594 7.60742188 4.55914062 7.80078125 4 8 C6.31 8.66 8.62 9.32 11 10 C10.67 11.98 10.34 13.96 10 16 C10.99 16.66 11.98 17.32 13 18 C11.24967156 17.85816304 9.49974466 17.71136571 7.75 17.5625 C6.77546875 17.48128906 5.8009375 17.40007812 4.796875 17.31640625 C2 17 2 17 -2 16 C-2.33 11.05 -2.66 6.1 -3 1 C-1 0 -1 0 0 0 Z " fill="#677C65" transform="translate(111,166)"/>
<path d="M0 0 C1.98 0.66 3.96 1.32 6 2 C5.67 3.98 5.34 5.96 5 8 C4.34 8 3.68 8 3 8 C3.66 10.31 4.32 12.62 5 15 C5.185625 14.1028125 5.185625 14.1028125 5.375 13.1875 C6 11 6 11 8 8 C8.33 9.32 8.66 10.64 9 12 C10.32 12.33 11.64 12.66 13 13 C13.19466332 14.79090253 13.38051213 16.58276505 13.5625 18.375 C13.66691406 19.37273437 13.77132812 20.37046875 13.87890625 21.3984375 C14 24 14 24 13 26 C11 26 11 26 9.375 24.6875 C8 23 8 23 8 20 C7.34 19.67 6.68 19.34 6 19 C6.33 18.34 6.66 17.68 7 17 C6.34 17 5.68 17 5 17 C4.67 17.99 4.34 18.98 4 20 C3.01 20 2.02 20 1 20 C0.78244334 14.5610835 0.89571616 10.12919186 3 5 C1.68 4.34 0.36 3.68 -1 3 C-0.67 2.01 -0.34 1.02 0 0 Z " fill="#D7DBCF" transform="translate(55,51)"/>
<path d="M0 0 C1.98 0.99 3.96 1.98 6 3 C6 3.66 6 4.32 6 5 C7.175625 5.2165625 7.175625 5.2165625 8.375 5.4375 C11 6 11 6 13 7 C13 7.66 13 8.32 13 9 C13.66 9 14.32 9 15 9 C15 9.66 15 10.32 15 11 C15.66 11.33 16.32 11.66 17 12 C17 13.32 17 14.64 17 16 C19.32323453 17.62750037 19.32323453 17.62750037 22 19 C23.8125 20.5625 23.8125 20.5625 25 22 C25 22.66 25 23.32 25 24 C21.34119259 22.4307213 18.74472372 20.1680204 15.8125 17.5 C14.93207031 16.7059375 14.05164062 15.911875 13.14453125 15.09375 C11 13 11 13 10 11 C9.67 11.33 9.34 11.66 9 12 C9.99 13.32 10.98 14.64 12 16 C10.68 16.99 9.36 17.98 8 19 C6.99267601 17.06629769 5.99436712 15.12789694 5 13.1875 C4.443125 12.10855469 3.88625 11.02960937 3.3125 9.91796875 C2 7 2 7 2 4 C1.34 4 0.68 4 0 4 C0 2.68 0 1.36 0 0 Z " fill="#3C6D53" transform="translate(30,46)"/>
<path d="M0 0 C0.99 0.33 1.98 0.66 3 1 C3.33 3.31 3.66 5.62 4 8 C4.99 8.33 5.98 8.66 7 9 C6.96744792 11.05078125 6.93489583 13.1015625 6.90234375 15.15234375 C6.79438816 17.01732141 6.79438816 17.01732141 8 18 C8.08669432 19.4887186 8.10703494 20.981445 8.09765625 22.47265625 C8.09443359 23.37177734 8.09121094 24.27089844 8.08789062 25.19726562 C8.07951172 26.14279297 8.07113281 27.08832031 8.0625 28.0625 C8.05798828 29.01189453 8.05347656 29.96128906 8.04882812 30.93945312 C8.0370011 33.29303065 8.02052025 35.64648477 8 38 C5.525 38.495 5.525 38.495 3 39 C3.99 38.34 4.98 37.68 6 37 C6.51842978 33.98294131 6.51842978 33.98294131 6.4375 30.5625 C6.45683594 29.40878906 6.47617188 28.25507813 6.49609375 27.06640625 C6.3253217 23.91363257 6.3253217 23.91363257 4.046875 22.33203125 C3.37140625 21.89246094 2.6959375 21.45289063 2 21 C1.20703125 19.1328125 1.20703125 19.1328125 0.8125 17.125 C0.66683594 16.41859375 0.52117187 15.7121875 0.37109375 14.984375 C0.24863281 14.32953125 0.12617187 13.6746875 0 13 C-0.309375 11.700625 -0.309375 11.700625 -0.625 10.375 C-1.1941827 6.77017625 -1.66160184 3.32320367 0 0 Z " fill="#4F5F3C" transform="translate(67,143)"/>
<path d="M0 0 C0.99 0.33 1.98 0.66 3 1 C3 1.66 3 2.32 3 3 C2.34 3 1.68 3 1 3 C0.5978125 3.86625 0.5978125 3.86625 0.1875 4.75 C-1 7 -1 7 -2.5625 9.0625 C-4.18688728 11.04181496 -4.18688728 11.04181496 -5 14 C2.71305227 10.52702689 2.71305227 10.52702689 9 5 C9.33 5 9.66 5 10 5 C9.53328373 10.41390868 8.75702189 14.20517932 6 19 C5.34 18.67 4.68 18.34 4 18 C4 17.34 4 16.68 4 16 C2.35 16 0.7 16 -1 16 C-0.67 18.97 -0.34 21.94 0 25 C-6.1875 18.8125 -6.1875 18.8125 -6.3125 14 C-6.18570893 10.90514527 -5.92575121 8.53388317 -4 6 C-3.01 5.67 -2.02 5.34 -1 5 C-0.67 3.35 -0.34 1.7 0 0 Z " fill="#607860" transform="translate(73,70)"/>
<path d="M0 0 C1.32 0 2.64 0 4 0 C4 2.64 4 5.28 4 8 C4.66 8.33 5.32 8.66 6 9 C6.625 11.0625 6.625 11.0625 7 13 C6.34 13 5.68 13 5 13 C4.93941406 13.63808594 4.87882812 14.27617188 4.81640625 14.93359375 C4.73261719 15.75988281 4.64882812 16.58617188 4.5625 17.4375 C4.48128906 18.26121094 4.40007812 19.08492187 4.31640625 19.93359375 C4 22 4 22 3 23 C6.3 23.66 9.6 24.32 13 25 C13 25.33 13 25.66 13 26 C8.71 26 4.42 26 0 26 C0 17.42 0 8.84 0 0 Z " fill="#818681" transform="translate(109,91)"/>
<path d="M0 0 C-1.29557424 7.28760511 -5.52370132 12.26204185 -10 18 C-10.48210937 18.6496875 -10.96421875 19.299375 -11.4609375 19.96875 C-14.00757461 23.27775618 -16.12112567 24.59929538 -20 26 C-20.33 26.99 -20.66 27.98 -21 29 C-23 28 -23 28 -24 25 C-23.401875 24.731875 -22.80375 24.46375 -22.1875 24.1875 C-19.95732387 23.11977597 -19.95732387 23.11977597 -18.4375 21.375 C-17 20 -17 20 -14 20 C-14 18.68 -14 17.36 -14 16 C-13.34 16 -12.68 16 -12 16 C-11.7525 15.360625 -11.505 14.72125 -11.25 14.0625 C-10 12 -10 12 -7.875 11.25 C-6.946875 11.12625 -6.946875 11.12625 -6 11 C-6 9.35 -6 7.7 -6 6 C-6.99 6 -7.98 6 -9 6 C-9 4.68 -9 3.36 -9 2 C-5.5647952 -0.29013653 -4.014669 -0.17842973 0 0 Z " fill="#96AB94" transform="translate(99,51)"/>
<path d="M0 0 C1.78821774 2.68232661 3.20142604 5.30288961 4.625 8.1875 C5.07101563 9.08855469 5.51703125 9.98960938 5.9765625 10.91796875 C6.31429687 11.60503906 6.65203125 12.29210938 7 13 C7.99 12.34 8.98 11.68 10 11 C8.68 9.35 7.36 7.7 6 6 C7.32 5.67 8.64 5.34 10 5 C10.2475 5.721875 10.495 6.44375 10.75 7.1875 C12.10808651 10.24319464 13.90383713 12.41473246 16 15 C16 15.66 16 16.32 16 17 C16.66 17.99 17.32 18.98 18 20 C15.1444268 21.4277866 13.15864398 21.3536092 10 21 C5.34091005 16.50375203 2.0746607 10.10194322 0 4 C0 2.68 0 1.36 0 0 Z " fill="#8EAF90" transform="translate(31,50)"/>
<path d="M0 0 C1.98 0.66 3.96 1.32 6 2 C5.67 2.66 5.34 3.32 5 4 C5.99 4.99 6.98 5.98 8 7 C7.67 7.66 7.34 8.32 7 9 C0.73836541 10.73194148 -3.99723113 9.13780702 -10 7 C-10 7.66 -10 8.32 -10 9 C-11.98 9 -13.96 9 -16 9 C-15.67 8.34 -15.34 7.68 -15 7 C-12.68925595 6.25881795 -10.35188447 5.59793673 -8 5 C-7.195625 4.79375 -6.39125 4.5875 -5.5625 4.375 C-5.046875 4.25125 -4.53125 4.1275 -4 4 C-4.33 3.34 -4.66 2.68 -5 2 C-3.35 2 -1.7 2 0 2 C0 1.34 0 0.68 0 0 Z " fill="#7F9D76" transform="translate(59,118)"/>
<path d="M0 0 C4.44870215 -0.39253254 7.14243493 0.84694043 11 3 C10.01 3.33 9.02 3.66 8 4 C8 4.66 8 5.32 8 6 C10.87413125 6.33397787 10.87413125 6.33397787 14 6 C15.91256712 4.11922127 15.91256712 4.11922127 17 2 C20.465 3.485 20.465 3.485 24 5 C23.5 6.9375 23.5 6.9375 22 9 C15.0516323 10.98524792 10.36268243 9.0379201 4 6 C3.67 6.66 3.34 7.32 3 8 C1.5 6.8125 1.5 6.8125 0 5 C-0.1875 2.3125 -0.1875 2.3125 0 0 Z " fill="#395330" transform="translate(51,133)"/>
<path d="M0 0 C0 0.99 0 1.98 0 3 C-2.33944729 5.33944729 -2.87599739 5.31880066 -6.0625 5.375 C-11.32644727 5.28954631 -15.40691031 3.43227445 -20 1 C-19.01 0.67 -18.02 0.34 -17 0 C-17 -0.66 -17 -1.32 -17 -2 C-12.545 -1.01 -12.545 -1.01 -8 0 C-10.475 -0.99 -10.475 -0.99 -13 -2 C-13 -2.33 -13 -2.66 -13 -3 C-7.8052391 -4.94803534 -4.46329399 -2.58051489 0 0 Z " fill="#9CB49B" transform="translate(66,94)"/>
<path d="M0 0 C0.33 1.32 0.66 2.64 1 4 C0.34 4 -0.32 4 -1 4 C-1.1546875 4.8971875 -1.1546875 4.8971875 -1.3125 5.8125 C-2.14489837 8.46104026 -2.67954185 9.4530279 -5 11 C-8.6875 11.1875 -8.6875 11.1875 -12 11 C-12.33 12.32 -12.66 13.64 -13 15 C-13.50537432 9.69356959 -12.30655751 7.13319688 -9 3 C-6.01323939 0.1095865 -4.12194827 -0.34349569 0 0 Z " fill="#B7CDB5" transform="translate(84,57)"/>
<path d="M0 0 C9.21492277 -0.02325802 18.4298353 -0.04098332 27.64478111 -0.05181217 C31.92449359 -0.0570117 36.20418586 -0.06405563 40.48388672 -0.07543945 C44.62063417 -0.08637309 48.75736228 -0.09229886 52.89412308 -0.09487724 C54.46561614 -0.09671273 56.03710825 -0.10029664 57.60859299 -0.10573006 C65.80106769 -0.132907 73.85487862 -0.01726019 82 1 C82 1.33 82 1.66 82 2 C78.04 2 74.08 2 70 2 C69.67 2.66 69.34 3.32 69 4 C68.505 3.01 68.505 3.01 68 2 C34.34 1.505 34.34 1.505 0 1 C0 0.67 0 0.34 0 0 Z " fill="#C8C8C8" transform="translate(62,38)"/>
<path d="M0 0 C4.48255338 1.25094513 7.77036157 2.5858108 11 6 C11.8125 9.75 11.8125 9.75 12 13 C11.01 13.495 11.01 13.495 10 14 C9.01 13.34 8.02 12.68 7 12 C7 11.34 7 10.68 7 10 C5.824375 9.62875 5.824375 9.62875 4.625 9.25 C2 8 2 8 0.6875 6.125 C0 4 0 4 0 0 Z " fill="#92B291" transform="translate(45,55)"/>
<path d="M0 0 C0.33 0 0.66 0 1 0 C1 3.63 1 7.26 1 11 C-0.4025 11.433125 -1.805 11.86625 -3.25 12.3125 C-6.65039306 13.43703944 -9.31581964 14.54922663 -12 17 C-11.57843307 12.08171916 -9.52992419 10.29459591 -6 7 C-4.38202231 5.14145968 -2.80505374 3.25404691 -1.234375 1.35546875 C-0.82703125 0.90816406 -0.4196875 0.46085938 0 0 Z " fill="#809683" transform="translate(126,153)"/>
<path d="M0 0 C0.845625 0.144375 1.69125 0.28875 2.5625 0.4375 C6.03022778 1.05058165 6.03022778 1.05058165 9.6875 1.3125 C13 2 13 2 14.9375 4.0625 C15.288125 4.701875 15.63875 5.34125 16 6 C15.67 6.66 15.34 7.32 15 8 C17.475 8.495 17.475 8.495 20 9 C20 10.32 20 11.64 20 13 C15.22123889 11.37614914 11.33331323 8.74237077 7.1875 5.9375 C6.49462891 5.47794922 5.80175781 5.01839844 5.08789062 4.54492188 C3.37141668 3.39327778 1.68286015 2.20022856 0 1 C0 0.67 0 0.34 0 0 Z " fill="#708F78" transform="translate(32,127)"/>
<path d="M0 0 C0 0.66 0 1.32 0 2 C1.32 2.66 2.64 3.32 4 4 C3.67 4.66 3.34 5.32 3 6 C-2.94 6 -8.88 6 -15 6 C-13.68 6.99 -12.36 7.98 -11 9 C-13.375 8.75 -13.375 8.75 -16 8 C-17.1640625 5.953125 -17.1640625 5.953125 -18 4 C-15.94037148 3.32451422 -13.87715678 2.65995688 -11.8125 2 C-10.66394531 1.62875 -9.51539063 1.2575 -8.33203125 0.875 C-5.35679188 0.09369447 -3.04716104 -0.18363306 0 0 Z " fill="#A6BEAF" transform="translate(40,107)"/>
<path d="M0 0 C4.95 0 9.9 0 15 0 C15 0.66 15 1.32 15 2 C10.71 2 6.42 2 2 2 C2.01160156 3.50949219 2.02320312 5.01898438 2.03515625 6.57421875 C2.09096329 17.0999504 2.12622035 27.52212851 1 38 C0.67 37.34 0.34 36.68 0 36 C-0.99 35.67 -1.98 35.34 -3 35 C-3.33 33.02 -3.66 31.04 -4 29 C-2.515 29.99 -2.515 29.99 -1 31 C-0.67 20.77 -0.34 10.54 0 0 Z " fill="#9AA09A" transform="translate(109,121)"/>
<path d="M0 0 C-0.3916035 5.95507399 -1.37124595 10.62819824 -4 16 C-4.33 15.01 -4.66 14.02 -5 13 C-4.67 12.34 -4.34 11.68 -4 11 C-5.98 11.99 -5.98 11.99 -8 13 C-8 8.31908701 -7.00354129 7.37898396 -4 4 C-4.66 3.67 -5.32 3.34 -6 3 C-6.33 3.66 -6.66 4.32 -7 5 C-7.66 4.34 -8.32 3.68 -9 3 C-5.55930376 0.70620251 -4.27709699 0 0 0 Z " fill="#B0C3B6" transform="translate(123,84)"/>
<path d="M0 0 C0 0.33 0 0.66 0 1 C-3.3 1 -6.6 1 -10 1 C-10.26932521 5.65052872 -10.26932521 5.65052872 -9 10 C-11.93879484 8.64763423 -14.29232911 7.10057341 -16.75 5 C-17.36359375 4.484375 -17.9771875 3.96875 -18.609375 3.4375 C-20 2 -20 2 -20 0 C-13.14011227 -0.94870788 -6.85988773 -0.94870788 0 0 Z " fill="#DFE2E0" transform="translate(42,76)"/>
<path d="M0 0 C1.65 0 3.3 0 5 0 C4.01 0.495 4.01 0.495 3 1 C3.33 1.66 3.66 2.32 4 3 C4.86625 2.938125 5.7325 2.87625 6.625 2.8125 C10.44199033 3.02455502 12.71077536 4.12044307 16 6 C15.01 7.485 15.01 7.485 14 9 C7.80481527 8.58411954 2.73310689 7.39748106 -3 5 C-2.505 4.54625 -2.01 4.0925 -1.5 3.625 C0.22609337 2.12364481 0.22609337 2.12364481 0 0 Z " fill="#85A385" transform="translate(42,78)"/>
<path d="M0 0 C1.8125 0.125 1.8125 0.125 4 1 C5.75 4.0625 5.75 4.0625 7 7 C6.34 7.66 5.68 8.32 5 9 C4.01 9 3.02 9 2 9 C2 9.66 2 10.32 2 11 C1.01 11 0.02 11 -1 11 C-1.33 12.32 -1.66 13.64 -2 15 C-2.66 15 -3.32 15 -4 15 C-3.5020163 11.26512223 -3.12508244 9.18762365 -1 6 C-0.60986284 4.0103005 -0.26797351 2.00980131 0 0 Z " fill="#A1B8A3" transform="translate(72,49)"/>
<path d="M0 0 C0 1.98 0 3.96 0 6 C3.24983135 4.91215032 3.24983135 4.91215032 6 3 C7.51928038 2.92820036 9.04167482 2.91607993 10.5625 2.9375 C11.38878906 2.94652344 12.21507813 2.95554688 13.06640625 2.96484375 C13.70449219 2.97644531 14.34257813 2.98804688 15 3 C12.49751135 4.66832577 10.58850813 5.62381674 7.8125 6.625 C6.73935547 7.01558594 6.73935547 7.01558594 5.64453125 7.4140625 C5.10183594 7.60742188 4.55914062 7.80078125 4 8 C6.475 8.99 6.475 8.99 9 10 C9 10.33 9 10.66 9 11 C5.7 11 2.4 11 -1 11 C-2.31626692 7.38026598 -3 4.90432869 -3 1 C-1 0 -1 0 0 0 Z " fill="#A1BBA2" transform="translate(111,166)"/>
<path d="M0 0 C0.33 0 0.66 0 1 0 C1 4.29 1 8.58 1 13 C5.62 13 10.24 13 15 13 C14.67 13.66 14.34 14.32 14 15 C14.66 15.66 15.32 16.32 16 17 C11.38 17 6.76 17 2 17 C2 16.34 2 15.68 2 15 C1.01 15 0.02 15 -1 15 C-0.67 10.05 -0.34 5.1 0 0 Z " fill="#050505" transform="translate(108,104)"/>
<path d="M0 0 C0.680625 0.00644531 1.36125 0.01289062 2.0625 0.01953125 C4 0.1875 4 0.1875 7 1.1875 C6.67 1.8475 6.34 2.5075 6 3.1875 C3.03 2.6925 3.03 2.6925 0 2.1875 C-2.18490007 4.86392489 -2.18490007 4.86392489 -2 7.1875 C-0.68 7.5175 0.64 7.8475 2 8.1875 C-1.06246747 9.97159802 -3.22079273 10.41630021 -6.75 10.3125 C-7.54921875 10.29445313 -8.3484375 10.27640625 -9.171875 10.2578125 C-9.77515625 10.23460938 -10.3784375 10.21140625 -11 10.1875 C-11 9.8575 -11 9.5275 -11 9.1875 C-7.535 8.6925 -7.535 8.6925 -4 8.1875 C-6.97 6.2075 -9.94 4.2275 -13 2.1875 C-10 1.1875 -10 1.1875 -7 2.1875 C-3.97455666 0.17053778 -3.38932618 -0.07061096 0 0 Z " fill="#B0C7AC" transform="translate(42,114.8125)"/>
<path d="M0 0 C1.875 0.75 1.875 0.75 3.875 2.75 C1.55643083 4.29571278 -0.63138429 5.54618552 -3.125 6.75 C-3.125 6.42 -3.125 6.09 -3.125 5.75 C-6.425 5.75 -9.725 5.75 -13.125 5.75 C-13.455 5.09 -13.785 4.43 -14.125 3.75 C-16.44656597 3.34270772 -18.7818787 3.00561323 -21.125 2.75 C-21.125 2.42 -21.125 2.09 -21.125 1.75 C-16.53902397 0.69169784 -12.84435153 0.91354895 -8.2734375 1.69140625 C-5.01491289 1.7802751 -3.19935342 -0.37639452 0 0 Z " fill="#6C8460" transform="translate(64.125,111.25)"/>
<path d="M0 0 C0.99 0 1.98 0 3 0 C4.05771739 1.63064764 5.05273046 3.30280873 6 5 C6.556875 5.556875 7.11375 6.11375 7.6875 6.6875 C8.3371875 7.3371875 8.3371875 7.3371875 9 8 C9 8.66 9 9.32 9 10 C2.36501601 9.64455443 -1.63187218 7.86904957 -7 4 C-3.81119049 2.40559525 -1.29102008 3.09213239 2 4 C1.34 2.68 0.68 1.36 0 0 Z " fill="#4E7756" transform="translate(57,72)"/>
<path d="M0 0 C0.33 0 0.66 0 1 0 C1 3.96 1 7.92 1 12 C4.63 12.33 8.26 12.66 12 13 C11.67 11.02 11.34 9.04 11 7 C13.52631142 10.12781414 15.42373366 13.29577411 17 17 C16.67 17.99 16.34 18.98 16 20 C15.67 19.01 15.34 18.02 15 17 C14.01 17.66 13.02 18.32 12 19 C11.01 18.67 10.02 18.34 9 18 C9.99 17.01 10.98 16.02 12 15 C7.71 14.34 3.42 13.68 -1 13 C-0.67 8.71 -0.34 4.42 0 0 Z " fill="#F1F6F0" transform="translate(128,151)"/>
<path d="M0 0 C0.99 0 1.98 0 3 0 C2.96744792 2.05078125 2.93489583 4.1015625 2.90234375 6.15234375 C2.79438816 8.01732141 2.79438816 8.01732141 4 9 C4.08669432 10.4887186 4.10703494 11.981445 4.09765625 13.47265625 C4.09443359 14.37177734 4.09121094 15.27089844 4.08789062 16.19726562 C4.07951172 17.14279297 4.07113281 18.08832031 4.0625 19.0625 C4.05798828 20.01189453 4.05347656 20.96128906 4.04882812 21.93945312 C4.0370011 24.29303065 4.02052025 26.64648477 4 29 C2.35 29.33 0.7 29.66 -1 30 C-0.01 29.34 0.98 28.68 2 28 C2.44300229 25.08132256 2.44300229 25.08132256 2.3125 21.75 C2.30863281 20.63109375 2.30476563 19.5121875 2.30078125 18.359375 C1.99482958 14.94225242 1.20920947 12.19840519 0 9 C-1.11693942 5.64918173 -0.85629006 3.42516025 0 0 Z " fill="#63675A" transform="translate(71,152)"/>
<path d="M0 0 C4.1495026 4.28335753 4.72520828 7.22937386 5 13 C4.5625 15.5 4.5625 15.5 4 17 C3.34 15.68 2.68 14.36 2 13 C1.34 14.65 0.68 16.3 0 18 C-0.33 18 -0.66 18 -1 18 C-1.02690844 15.37493198 -1.04679404 12.75013827 -1.0625 10.125 C-1.07087891 9.37863281 -1.07925781 8.63226563 -1.08789062 7.86328125 C-1.11328125 2.2265625 -1.11328125 2.2265625 0 0 Z " fill="#486C5A" transform="translate(99,140)"/>
<path d="M0 0 C3.86672902 3.22227418 7.47854807 6.46741518 10.9375 10.125 C14.63122147 13.89823406 18.16369222 15.92729667 23 18 C19.33546711 19.14617548 16.99501982 18.57738289 13.3046875 17.546875 C9.26097638 16.58735033 5.13581914 16.32205149 1 16 C1 15.67 1 15.34 1 15 C6.445 14.505 6.445 14.505 12 14 C11.13375 13.15695313 10.2675 12.31390625 9.375 11.4453125 C8.24973959 10.33880643 7.12475372 9.23202112 6 8.125 C5.42765625 7.56941406 4.8553125 7.01382813 4.265625 6.44140625 C2.80549218 4.99865596 1.39850702 3.5025626 0 2 C0 1.34 0 0.68 0 0 Z " fill="#E0F0E2" transform="translate(39,91)"/>
<path d="M0 0 C6.02770138 0.47587116 10.76678289 3.19722957 16 6 C16.33 4.35 16.66 2.7 17 1 C17.66 1 18.32 1 19 1 C19.12375 1.639375 19.2475 2.27875 19.375 2.9375 C19.58125 3.618125 19.7875 4.29875 20 5 C20.66 5.33 21.32 5.66 22 6 C21.67 7.98 21.34 9.96 21 12 C20.32453125 11.57847656 19.6490625 11.15695313 18.953125 10.72265625 C18.06109375 10.17480469 17.1690625 9.62695312 16.25 9.0625 C15.36828125 8.51722656 14.4865625 7.97195312 13.578125 7.41015625 C11.31600083 6.17284288 9.51433675 5.46409487 7 5 C7 4.34 7 3.68 7 3 C4.69 2.34 2.38 1.68 0 1 C0 0.67 0 0.34 0 0 Z " fill="#E0EBDF" transform="translate(36,50)"/>
<path d="M0 0 C0.99 0 1.98 0 3 0 C3 0.99 3 1.98 3 3 C-14.82 3 -32.64 3 -51 3 C-51 2.67 -51 2.34 -51 2 C-34.17 2 -17.34 2 0 2 C0 1.34 0 0.68 0 0 Z " fill="#030303" transform="translate(121,184)"/>
<path d="M0 0 C0.90105469 0.00902344 1.80210937 0.01804688 2.73046875 0.02734375 C3.41753906 0.03894531 4.10460937 0.05054688 4.8125 0.0625 C3.8225 0.3925 2.8325 0.7225 1.8125 1.0625 C1.8125 1.7225 1.8125 2.3825 1.8125 3.0625 C-1.88349959 5.1552121 -4.99092291 5.44146498 -9.1640625 5.71875 C-11.41036476 5.89957192 -11.41036476 5.89957192 -13.1875 8.0625 C-14.1775 7.7325 -15.1675 7.4025 -16.1875 7.0625 C-14.92049277 6.0783875 -13.6487381 5.10038503 -12.375 4.125 C-11.66730469 3.57972656 -10.95960937 3.03445312 -10.23046875 2.47265625 C-6.81082873 0.11225463 -4.03701868 -0.05242881 0 0 Z " fill="#BBD2BC" transform="translate(128.1875,163.9375)"/>
<path d="M0 0 C2.31 0.66 4.62 1.32 7 2 C7 2.66 7 3.32 7 4 C7.66 4.33 8.32 4.66 9 5 C8.01 5.495 8.01 5.495 7 6 C7.33 6.66 7.66 7.32 8 8 C4.78548731 9.60725635 1.56387464 9.05748185 -2 9 C-2 7 -2 7 -0.5 5.375 C-0.005 4.92125 0.49 4.4675 1 4 C0.01 3.34 -0.98 2.68 -2 2 C-1.34 1.34 -0.68 0.68 0 0 Z " fill="#4E6347" transform="translate(65,120)"/>
<path d="M0 0 C-0.46671627 5.41390868 -1.24297811 9.20517932 -4 14 C-4.66 13.67 -5.32 13.34 -6 13 C-6 12.34 -6 11.68 -6 11 C-6.66 11 -7.32 11 -8 11 C-8.4375 8.875 -8.4375 8.875 -8 6 C-2.51990632 0 -2.51990632 0 0 0 Z " fill="#859F83" transform="translate(83,75)"/>
<path d="M0 0 C0.99 0.33 1.98 0.66 3 1 C2.67 2.32 2.34 3.64 2 5 C2.99 5.66 3.98 6.32 5 7 C1.59677126 9.09429461 -1.03952054 9.33706208 -5 9 C-5.99 8.34 -6.98 7.68 -8 7 C-8 6.01 -8 5.02 -8 4 C-5.33333333 3.33333333 -2.66666667 2.66666667 0 2 C0 1.34 0 0.68 0 0 Z " fill="#A8BCA8" transform="translate(40,78)"/>
<path d="M0 0 C4 0 4 0 6 1 C4.76265016 2.03613033 3.50955363 3.05347802 2.25 4.0625 C1.55390625 4.63097656 0.8578125 5.19945313 0.140625 5.78515625 C-2 7 -2 7 -4.265625 6.68359375 C-4.83796875 6.45800781 -5.4103125 6.23242188 -6 6 C-6.66 7.32 -7.32 8.64 -8 10 C-8.66 10 -9.32 10 -10 10 C-10.33 10.66 -10.66 11.32 -11 12 C-12.60031344 8.79937313 -11.03173691 6.27728194 -10 3 C-4.375 1.875 -4.375 1.875 -1 3 C-0.67 2.01 -0.34 1.02 0 0 Z " fill="#A5BDA6" transform="translate(80,65)"/>
<path d="M0 0 C2.97 1.32 5.94 2.64 9 4 C8.34 4.66 7.68 5.32 7 6 C7.99 6.99 8.98 7.98 10 9 C2.25 7.125 2.25 7.125 0 6 C0 6.66 0 7.32 0 8 C-1.32 8 -2.64 8 -4 8 C-3.34 6.02 -2.68 4.04 -2 2 C-1.34 2 -0.68 2 0 2 C0 1.34 0 0.68 0 0 Z " fill="#BACFB9" transform="translate(49,86)"/>
<path d="M0 0 C2.31 0.33 4.62 0.66 7 1 C7.5625 2.9375 7.5625 2.9375 8 5 C7 6 7 6 3.48999023 6.11352539 C1.92951578 6.11336626 0.36903607 6.10767142 -1.19140625 6.09765625 C-2.01124496 6.0962413 -2.83108368 6.09482635 -3.67576599 6.09336853 C-6.30471382 6.08775289 -8.93357773 6.07519779 -11.5625 6.0625 C-13.34049357 6.05748701 -15.11848846 6.05292376 -16.89648438 6.04882812 C-21.26435545 6.03777839 -25.63216348 6.02050331 -30 6 C-30 5.67 -30 5.34 -30 5 C-18.45 5 -6.9 5 5 5 C5 4.34 5 3.68 5 3 C4.01 3 3.02 3 2 3 C2 2.34 2 1.68 2 1 C1.34 0.67 0.68 0.34 0 0 Z " fill="#A1A1A1" transform="translate(193,182)"/>
<path d="M0 0 C1.98 0.66 3.96 1.32 6 2 C6 2.66 6 3.32 6 4 C6.66 4 7.32 4 8 4 C8 4.66 8 5.32 8 6 C8.66 6.33 9.32 6.66 10 7 C10 8.32 10 9.64 10 11 C12.32323453 12.62750037 12.32323453 12.62750037 15 14 C16.8125 15.5625 16.8125 15.5625 18 17 C18 17.66 18 18.32 18 19 C14.40542051 17.42947111 11.70154817 15.2550017 8.75 12.6875 C7.85796875 11.92824219 6.9659375 11.16898438 6.046875 10.38671875 C4 8 4 8 3.703125 5.20703125 C3.85007813 4.11455078 3.85007813 4.11455078 4 3 C2.68 2.67 1.36 2.34 0 2 C0 1.34 0 0.68 0 0 Z " fill="#688E6E" transform="translate(37,51)"/>
<path d="M0 0 C0.33 1.65 0.66 3.3 1 5 C-0.43739513 5.02712066 -1.87493863 5.04645067 -3.3125 5.0625 C-4.51326172 5.07990234 -4.51326172 5.07990234 -5.73828125 5.09765625 C-8 5 -8 5 -11 4 C-10.67 2.68 -10.34 1.36 -10 0 C-6.42355152 -1.2380014 -3.66305234 -0.74926071 0 0 Z " fill="#4F6453" transform="translate(74,106)"/>
<path d="M0 0 C1.32 0 2.64 0 4 0 C4.28875 0.639375 4.5775 1.27875 4.875 1.9375 C5.82823451 4.15206079 5.82823451 4.15206079 8 5 C7.505 5.4125 7.01 5.825 6.5 6.25 C4.56613908 8.12202338 4.56613908 8.12202338 5 12 C4.34 12 3.68 12 3 12 C2.67 12.66 2.34 13.32 2 14 C0.68 13.34 -0.64 12.68 -2 12 C-0.35 8.37 1.3 4.74 3 1 C2.01 0.67 1.02 0.34 0 0 Z " fill="#111714" transform="translate(96,50)"/>
<path d="M0 0 C-1.98 0.99 -1.98 0.99 -4 2 C-2.02 2 -0.04 2 2 2 C2 2.66 2 3.32 2 4 C-4.81508864 4.82810601 -10.51870203 5.50413785 -17 3 C-17 2.34 -17 1.68 -17 1 C-11.29014022 0.25983299 -5.75813575 -0.10469338 0 0 Z " fill="#255434" transform="translate(48,124)"/>
<path d="M0 0 C-1.75 3.875 -1.75 3.875 -4 5 C-5.54023996 5.06950541 -7.08334988 5.08452357 -8.625 5.0625 C-9.85089844 5.04896484 -9.85089844 5.04896484 -11.1015625 5.03515625 C-12.04128906 5.01775391 -12.04128906 5.01775391 -13 5 C-12.67 3.68 -12.34 2.36 -12 1 C-8.0186217 -0.3271261 -4.14954773 -0.06915913 0 0 Z " fill="#343434" transform="translate(74,182)"/>
<path d="M0 0 C0.33 0 0.66 0 1 0 C1 10.56 1 21.12 1 32 C-3 27 -3 27 -3 23 C-2.34 22.67 -1.68 22.34 -1 22 C-1.01160156 20.83082031 -1.02320312 19.66164062 -1.03515625 18.45703125 C-1.04453913 16.90885577 -1.0536388 15.36067855 -1.0625 13.8125 C-1.07506836 12.65911133 -1.07506836 12.65911133 -1.08789062 11.48242188 C-1.10491934 7.51473211 -0.98604115 3.87428766 0 0 Z " fill="#040603" transform="translate(108,122)"/>
<path d="M0 0 C1.32 0 2.64 0 4 0 C4 2.64 4 5.28 4 8 C4.66 8.33 5.32 8.66 6 9 C6.625 11.0625 6.625 11.0625 7 13 C5.33333333 13 3.66666667 13 2 13 C1.67 15.31 1.34 17.62 1 20 C0.67 20 0.34 20 0 20 C0 13.4 0 6.8 0 0 Z " fill="#69746A" transform="translate(109,91)"/>
<path d="M0 0 C10.55808656 1.92710706 10.55808656 1.92710706 15 4 C12.13822943 5.43088528 10.06624227 4.59991697 7 4 C7 4.66 7 5.32 7 6 C-1.57142857 5.14285714 -1.57142857 5.14285714 -5 3 C-3.02 3 -1.04 3 1 3 C0.67 2.01 0.34 1.02 0 0 Z " fill="#113D15" transform="translate(49,125)"/>
<path d="M0 0 C1.78821774 2.68232661 3.20142604 5.30288961 4.625 8.1875 C5.07101563 9.08855469 5.51703125 9.98960938 5.9765625 10.91796875 C6.31429687 11.60503906 6.65203125 12.29210938 7 13 C7.99 12.34 8.98 11.68 10 11 C8.68 9.35 7.36 7.7 6 6 C7.32 5.67 8.64 5.34 10 5 C11.25664978 7.90600261 12 9.79604584 12 13 C11.34 13 10.68 13 10 13 C10 14.32 10 15.64 10 17 C8.203125 16.86328125 8.203125 16.86328125 6 16 C4.296875 13.41796875 4.296875 13.41796875 2.75 10.1875 C2.22921875 9.12917969 1.7084375 8.07085937 1.171875 6.98046875 C0 4 0 4 0 0 Z " fill="#9EC1AC" transform="translate(31,50)"/>
<path d="M0 0 C2.64 0 5.28 0 8 0 C8 0.33 8 0.66 8 1 C10.97 1.99 13.94 2.98 17 4 C17 4.33 17 4.66 17 5 C16.05125 5.309375 15.1025 5.61875 14.125 5.9375 C11.13919592 6.87394742 11.13919592 6.87394742 9 8 C9 7.34 9 6.68 9 6 C8.01 6 7.02 6 6 6 C6 5.01 6 4.02 6 3 C3.03 2.505 3.03 2.505 0 2 C0 1.34 0 0.68 0 0 Z " fill="#6F6F6F" transform="translate(136,118)"/>
<path d="M0 0 C0 3.96 0 7.92 0 12 C-1.32 11.67 -2.64 11.34 -4 11 C-3.67 9.02 -3.34 7.04 -3 5 C-5.64 4.34 -8.28 3.68 -11 3 C-11 2.67 -11 2.34 -11 2 C-9.5422647 1.664061 -8.08378894 1.33133376 -6.625 1 C-5.40683594 0.7215625 -5.40683594 0.7215625 -4.1640625 0.4375 C-2 0 -2 0 0 0 Z " fill="#283826" transform="translate(75,117)"/>
<path d="M0 0 C4.66666667 2.33333333 9.33333333 4.66666667 14 7 C13.01 7.33 12.02 7.66 11 8 C10.67 8.66 10.34 9.32 10 10 C8.53444684 9.26420788 7.07775513 8.51074874 5.625 7.75 C4.81289063 7.33234375 4.00078125 6.9146875 3.1640625 6.484375 C0.79198795 4.85732025 0.02905196 3.64613361 -1 1 C-0.67 0.67 -0.34 0.34 0 0 Z " fill="#648C74" transform="translate(52,100)"/>
<path d="M0 0 C0.72445312 0.47050781 1.44890625 0.94101563 2.1953125 1.42578125 C9.40010298 6.06820817 9.40010298 6.06820817 17 10 C14.35261084 11.4606285 13.10551666 12 10 12 C7.51953125 9.8828125 7.51953125 9.8828125 4.8125 7.125 C3.91144531 6.22007813 3.01039062 5.31515625 2.08203125 4.3828125 C0 2 0 2 0 0 Z " fill="#2B5037" transform="translate(39,89)"/>
<path d="M0 0 C0.99 0.33 1.98 0.66 3 1 C2.8125 3.3125 2.8125 3.3125 2 6 C-0.5 7.6875 -0.5 7.6875 -3 9 C-3.33 9.66 -3.66 10.32 -4 11 C-4.99 10.67 -5.98 10.34 -7 10 C-7.99 10.495 -7.99 10.495 -9 11 C-7.44095325 7.17324889 -4.96833913 4.81992217 -2 2 C-1.34 1.34 -0.68 0.68 0 0 Z " fill="#BBD0B9" transform="translate(91,56)"/>
<path d="M0 0 C4.44870215 -0.39253254 7.14243493 0.84694043 11 3 C10.01 3.33 9.02 3.66 8 4 C7.67 4.99 7.34 5.98 7 7 C6.01 6.67 5.02 6.34 4 6 C3.67 6.66 3.34 7.32 3 8 C1.5 6.8125 1.5 6.8125 0 5 C-0.1875 2.3125 -0.1875 2.3125 0 0 Z " fill="#446D45" transform="translate(51,133)"/>
<path d="M0 0 C-0.125 1.8125 -0.125 1.8125 -1 4 C-3.9375 5.8125 -3.9375 5.8125 -7 7 C-9 6 -9 6 -11 3 C-10 1 -10 1 -6.625 -0.1875 C-3 -1 -3 -1 0 0 Z " fill="#C6D1C6" transform="translate(137,168)"/>
<path d="M0 0 C0.66 0.66 1.32 1.32 2 2 C1.67 2.66 1.34 3.32 1 4 C0.34 4 -0.32 4 -1 4 C-0.67 6.64 -0.34 9.28 0 12 C-0.66 11.67 -1.32 11.34 -2 11 C-2 10.34 -2 9.68 -2 9 C-2.99 8.67 -3.98 8.34 -5 8 C-6.6875 4.9375 -6.6875 4.9375 -8 2 C-5.33333333 2 -2.66666667 2 0 2 C0 1.34 0 0.68 0 0 Z " fill="#5B735D" transform="translate(109,163)"/>
<path d="M0 0 C3.96 0 7.92 0 12 0 C10.68 0.33 9.36 0.66 8 1 C8 1.66 8 2.32 8 3 C5 5 5 5 2 6 C1.34 5.67 0.68 5.34 0 5 C-0.33 5.66 -0.66 6.32 -1 7 C-0.67 4.69 -0.34 2.38 0 0 Z " fill="#C3CFC3" transform="translate(32,77)"/>
<path d="M0 0 C7.50769231 1.47692308 7.50769231 1.47692308 10 4.125 C10.495 5.053125 10.495 5.053125 11 6 C8.23556715 7.07010304 6.46148633 7.16283213 3.6640625 6.17578125 C1.41525773 5.16488321 -0.80159637 4.11596524 -3 3 C-2.01 2.67 -1.02 2.34 0 2 C0 1.34 0 0.68 0 0 Z " fill="#A5BFA8" transform="translate(49,92)"/>
<path d="M0 0 C0.33 1.32 0.66 2.64 1 4 C0.34 4 -0.32 4 -1 4 C-1 4.66 -1 5.32 -1 6 C-2.65 5.67 -4.3 5.34 -6 5 C-5.67 5.99 -5.34 6.98 -5 8 C-6.32 8 -7.64 8 -9 8 C-8.64005447 5.3364031 -8.28838998 3.41816548 -6.75 1.1875 C-4.41988723 -0.39364795 -2.75498245 -0.22337696 0 0 Z " fill="#BDD3BD" transform="translate(84,57)"/>
<path d="M0 0 C0.66 0 1.32 0 2 0 C2 0.99 2 1.98 2 3 C2.66 3 3.32 3 4 3 C4.226875 3.556875 4.45375 4.11375 4.6875 4.6875 C5.96994713 7.21767502 5.96994713 7.21767502 8.625 9.4375 C11 12 11 12 11.3125 14.8125 C11.1578125 15.8953125 11.1578125 15.8953125 11 17 C6.1754095 12.74300838 2.94136005 7.71088806 0 2 C0 1.34 0 0.68 0 0 Z " fill="#9BA88B" transform="translate(58,146)"/>
<path d="M0 0 C0.66 0 1.32 0 2 0 C2 0.66 2 1.32 2 2 C2.99 2 3.98 2 5 2 C5 6.95 5 11.9 5 17 C4.34 16.67 3.68 16.34 3 16 C3.33 13.36 3.66 10.72 4 8 C2.68 7.67 1.36 7.34 0 7 C0 4.69 0 2.38 0 0 Z " fill="#2A3122" transform="translate(70,144)"/>
<path d="M0 0 C2.62559844 0.3080144 5.25039806 0.62120182 7.875 0.9375 C8.99455078 1.06801758 8.99455078 1.06801758 10.13671875 1.20117188 C15.7734375 1.88671875 15.7734375 1.88671875 18 3 C17.67 4.32 17.34 5.64 17 7 C11.27789404 5.13236819 5.62338249 3.14710968 0 1 C0 0.67 0 0.34 0 0 Z " fill="#203527" transform="translate(57,100)"/>
<path d="M0 0 C1.31722179 0.42307123 2.62872664 0.86397486 3.9375 1.3125 C4.66839844 1.55613281 5.39929688 1.79976562 6.15234375 2.05078125 C8 3 8 3 9 6 C8.67 6.66 8.34 7.32 8 8 C2.25 8.125 2.25 8.125 0 7 C0 6.34 0 5.68 0 5 C0.99 5 1.98 5 3 5 C3 4.34 3 3.68 3 3 C2.01 2.67 1.02 2.34 0 2 C0 1.34 0 0.68 0 0 Z " fill="#628055" transform="translate(59,132)"/>
<path d="M0 0 C0.99 0 1.98 0 3 0 C3 0.66 3 1.32 3 2 C3.99 2 4.98 2 6 2 C6 2.66 6 3.32 6 4 C-3.9 4 -13.8 4 -24 4 C-24 3.67 -24 3.34 -24 3 C-15.75 3 -7.5 3 1 3 C0.67 2.01 0.34 1.02 0 0 Z " fill="#030303" transform="translate(192,183)"/>
<path d="M0 0 C1.03930664 0.07831055 1.03930664 0.07831055 2.09960938 0.15820312 C3.79604437 0.28689819 5.49184863 0.42386184 7.1875 0.5625 C6.8575 1.8825 6.5275 3.2025 6.1875 4.5625 C4.99125 4.046875 3.795 3.53125 2.5625 3 C-1.29411759 1.54865804 -3.77224876 1.4606133 -7.8125 2.5625 C-8.59625 2.748125 -9.38 2.93375 -10.1875 3.125 C-10.72375 3.269375 -11.26 3.41375 -11.8125 3.5625 C-12.1425 2.5725 -12.4725 1.5825 -12.8125 0.5625 C-8.46757229 -0.57646163 -4.42629215 -0.36850471 0 0 Z " fill="#B5C8B0" transform="translate(66.8125,110.4375)"/>
<path d="M0 0 C4.88925715 1.39693061 7.05441957 3.93987562 10 8 C11.3125 10.875 11.3125 10.875 12 13 C9.0625 12.25 9.0625 12.25 6 11 C5.04582732 8.81903388 5 7.35817766 5 5 C4.175 4.505 3.35 4.01 2.5 3.5 C1.675 3.005 0.85 2.51 0 2 C0 1.34 0 0.68 0 0 Z " fill="#182D1B" transform="translate(61,84)"/>
<path d="M0 0 C0.66 0 1.32 0 2 0 C2 0.66 2 1.32 2 2 C2.66 2 3.32 2 4 2 C5.125 7.75 5.125 7.75 4 10 C2 10 2 10 0.375 8.6875 C-1 7 -1 7 -1 4 C-1.66 3.67 -2.32 3.34 -3 3 C-2.34 3 -1.68 3 -1 3 C-0.67 2.01 -0.34 1.02 0 0 Z " fill="#E0ECDB" transform="translate(64,67)"/>
<path d="M0 0 C6.45512034 -0.56131481 11.15439723 1.36536213 17 4 C16.01 5.485 16.01 5.485 15 7 C14.5153125 6.71125 14.030625 6.4225 13.53125 6.125 C8.37898353 3.27143703 4.87035937 2.58068862 -1 3 C-0.67 2.01 -0.34 1.02 0 0 Z " fill="#547358" transform="translate(45,79)"/>
<path d="M0 0 C8.35010941 0.35010941 8.35010941 0.35010941 11.0625 3.0625 C11.371875 3.701875 11.68125 4.34125 12 5 C7.06729471 6.6442351 4.45975807 5.18615592 0 3 C0 2.01 0 1.02 0 0 Z " fill="#101010" transform="translate(122,40)"/>
<path d="M0 0 C0.66 0 1.32 0 2 0 C2.86916887 1.40751221 3.71985149 2.8264521 4.5625 4.25 C5.03816406 5.03890625 5.51382813 5.8278125 6.00390625 6.640625 C7.13022151 9.30844625 7.0169313 10.34501768 6 13 C5.7525 12.195625 5.505 11.39125 5.25 10.5625 C4.27761141 7.828919 4.27761141 7.828919 1.875 7.1875 C1.25625 7.125625 0.6375 7.06375 0 7 C0 4.69 0 2.38 0 0 Z " fill="#7A897F" transform="translate(72,42)"/>
<path d="M0 0 C7.75 -0.125 7.75 -0.125 10 1 C9.67 1.99 9.34 2.98 9 4 C6.9375 4.6875 6.9375 4.6875 5 5 C5.33 4.34 5.66 3.68 6 3 C1.545 3.495 1.545 3.495 -3 4 C-2.67 3.34 -2.34 2.68 -2 2 C-1.34 2 -0.68 2 0 2 C0 1.34 0 0.68 0 0 Z " fill="#9DB19E" transform="translate(130,165)"/>
<path d="M0 0 C3.29164717 -0.02952761 6.58325938 -0.04697292 9.875 -0.0625 C11.25171875 -0.07506836 11.25171875 -0.07506836 12.65625 -0.08789062 C18.8335647 -0.10964173 24.86721835 0.26069892 31 1 C31 1.33 31 1.66 31 2 C27.04 2 23.08 2 19 2 C18.67 2.66 18.34 3.32 18 4 C17.67 3.34 17.34 2.68 17 2 C11.39 1.67 5.78 1.34 0 1 C0 0.67 0 0.34 0 0 Z " fill="#BCBCBC" transform="translate(113,38)"/>
<path d="M0 0 C0.33 2.97 0.66 5.94 1 9 C-0.32 9 -1.64 9 -3 9 C-3.33 8.34 -3.66 7.68 -4 7 C-4.66 6.67 -5.32 6.34 -6 6 C-4.90218919 2.70656758 -3.7827394 0 0 0 Z " fill="#6F9772" transform="translate(106,158)"/>
<path d="M0 0 C5.75 1.875 5.75 1.875 8 3 C7.67 4.32 7.34 5.64 7 7 C6.67 6.34 6.34 5.68 6 5 C5.34 5 4.68 5 4 5 C3.67 5.99 3.34 6.98 3 8 C1.35 6.02 -0.3 4.04 -2 2 C-1.34 1.67 -0.68 1.34 0 1 C0 0.67 0 0.34 0 0 Z " fill="#94AD8A" transform="translate(54,138)"/>
<path d="M0 0 C0.845625 0.144375 1.69125 0.28875 2.5625 0.4375 C6.03593149 1.0058797 9.51445662 1.51202393 13 2 C13 2.66 13 3.32 13 4 C12.01 4.33 11.02 4.66 10 5 C10.33 5.66 10.66 6.32 11 7 C6.89188572 5.55007731 3.53144334 3.54592427 0 1 C0 0.67 0 0.34 0 0 Z " fill="#92B39C" transform="translate(32,127)"/>
<path d="M0 0 C-0.59861742 2.35171131 -1.26924352 4.6859378 -2 7 C-2.99 7.495 -2.99 7.495 -4 8 C-3.67 6.35 -3.34 4.7 -3 3 C-4.98 3.99 -6.96 4.98 -9 6 C-9 4.68 -9 3.36 -9 2 C-5.5647952 -0.29013653 -4.014669 -0.17842973 0 0 Z " fill="#8A9B8C" transform="translate(99,51)"/>
<path d="M0 0 C0.66 0 1.32 0 2 0 C2.66 0.99 3.32 1.98 4 3 C4.99 3 5.98 3 7 3 C7.1875 5.875 7.1875 5.875 7 9 C6.01 9.66 5.02 10.32 4 11 C3.32591692 9.73308493 2.66099503 8.46129251 2 7.1875 C1.62875 6.47980469 1.2575 5.77210938 0.875 5.04296875 C0 3 0 3 0 0 Z " fill="#434343" transform="translate(132,141)"/>
<path d="M0 0 C2.3431213 0.25561323 4.67843403 0.59270772 7 1 C7.33 1.66 7.66 2.32 8 3 C6.35 3 4.7 3 3 3 C3 3.99 3 4.98 3 6 C4.65 6.33 6.3 6.66 8 7 C8 7.33 8 7.66 8 8 C4.42195344 8.19878036 2.00791911 8.04108797 -1 6 C-1.33 5.01 -1.66 4.02 -2 3 C-1.34 2.01 -0.68 1.02 0 0 Z " fill="#9DB599" transform="translate(41,116)"/>
<path d="M0 0 C1.32 0.66 2.64 1.32 4 2 C3.01 2.495 3.01 2.495 2 3 C2 3.99 2 4.98 2 6 C-4.625 7.25 -4.625 7.25 -8 5 C-6.865625 4.54625 -5.73125 4.0925 -4.5625 3.625 C-0.95278308 2.42904194 -0.95278308 2.42904194 0 0 Z " fill="#728E77" transform="translate(66,94)"/>
<path d="M0 0 C0.66 1.32 1.32 2.64 2 4 C1.01 4.66 0.02 5.32 -1 6 C-1.99 5.67 -2.98 5.34 -4 5 C-4.33 5.99 -4.66 6.98 -5 8 C-6.65 7.67 -8.3 7.34 -10 7 C-9.34 6.67 -8.68 6.34 -8 6 C-7.67 5.01 -7.34 4.02 -7 3 C-6.01 3 -5.02 3 -4 3 C-1.82967524 1.56009377 -1.82967524 1.56009377 0 0 Z " fill="#B0C5AF" transform="translate(84,67)"/>
<path d="M0 0 C3.0625 0.125 3.0625 0.125 5.0625 1.125 C5.0625 2.775 5.0625 4.425 5.0625 6.125 C4.0725 6.62 4.0725 6.62 3.0625 7.125 C2.0725 6.465 1.0825 5.805 0.0625 5.125 C0.0625 4.465 0.0625 3.805 0.0625 3.125 C-1.2575 2.465 -2.5775 1.805 -3.9375 1.125 C-2.9375 0.125 -2.9375 0.125 0 0 Z " fill="#8DAF90" transform="translate(51.9375,61.875)"/>
<path d="M0 0 C0.99 0.33 1.98 0.66 3 1 C5.14255793 0.61067144 5.14255793 0.61067144 7 0 C6.34 1.98 5.68 3.96 5 6 C4.401875 5.814375 3.80375 5.62875 3.1875 5.4375 C0.83591238 4.77906313 0.83591238 4.77906313 -2 6 C-1.49396008 3.83125748 -1.00016187 2.00032373 0 0 Z " fill="#CDD9C6" transform="translate(109,159)"/>
<path d="M0 0 C2.97 0.495 2.97 0.495 6 1 C6 1.99 6 2.98 6 4 C6.66 4 7.32 4 8 4 C8 4.99 8 5.98 8 7 C7.01 7 6.02 7 5 7 C4.67 7.99 4.34 8.98 4 10 C2 4.25 2 4.25 2 2 C1.34 2 0.68 2 0 2 C0 1.34 0 0.68 0 0 Z " fill="#4C4C4C" transform="translate(143,56)"/>
<path d="M0 0 C1.62463842 -0.05395478 3.24978541 -0.09277195 4.875 -0.125 C5.77992187 -0.14820312 6.68484375 -0.17140625 7.6171875 -0.1953125 C10 0 10 0 12 2 C8.0186217 3.3271261 4.14954773 3.06915913 0 3 C0 2.01 0 1.02 0 0 Z " fill="#7F937E" transform="translate(40,107)"/>
<path d="M0 0 C1.98 0 3.96 0 6 0 C6 0.99 6 1.98 6 3 C7.32 2.67 8.64 2.34 10 2 C8.875 3.5625 8.875 3.5625 7 5 C3.8125 4.6875 3.8125 4.6875 1 4 C0.67 2.68 0.34 1.36 0 0 Z " fill="#424242" transform="translate(61,39)"/>
<path d="M0 0 C2 3 2 3 2 7 C-1.05847848 7.54372951 -3.88772805 8 -7 8 C-6.21625 7.236875 -5.4325 6.47375 -4.625 5.6875 C-1.92742283 3.09108195 -1.92742283 3.09108195 0 0 Z " fill="#ABBDAD" transform="translate(124,155)"/>
<path d="M0 0 C0.99 0 1.98 0 3 0 C3 3.3 3 6.6 3 10 C2.67 10 2.34 10 2 10 C1.67 7.69 1.34 5.38 1 3 C-0.98 5.31 -2.96 7.62 -5 10 C-5 6.68233477 -4.54749052 5.9296548 -2.6875 3.3125 C-2.25824219 2.68988281 -1.82898438 2.06726563 -1.38671875 1.42578125 C-0.92910156 0.95527344 -0.47148438 0.48476562 0 0 Z " fill="#DFE9E1" transform="translate(125,151)"/>
<path d="M0 0 C-0.33 0.99 -0.66 1.98 -1 3 C-7.4 4.23076923 -7.4 4.23076923 -10.4375 3.0625 C-10.953125 2.711875 -11.46875 2.36125 -12 2 C-7.93192322 -0.71205119 -4.69252613 -1.56417538 0 0 Z " fill="#6F8862" transform="translate(67,124)"/>
<path d="M0 0 C0.66 0.66 1.32 1.32 2 2 C1.01 2 0.02 2 -1 2 C-1 2.66 -1 3.32 -1 4 C-7.11090483 4.09945415 -12.97403427 4.0712828 -19 3 C-19 2.67 -19 2.34 -19 2 C-14.41402397 0.94169784 -10.71935153 1.16354895 -6.1484375 1.94140625 C-3.57396454 2.01161915 -2.18764138 1.30169612 0 0 Z " fill="#839B76" transform="translate(62,111)"/>
<path d="M0 0 C0.99 0.495 0.99 0.495 2 1 C2 3.64 2 6.28 2 9 C2.99 9.33 3.98 9.66 5 10 C5 10.66 5 11.32 5 12 C3 13.625 3 13.625 1 15 C-0.44207941 12.11584117 -0.09394887 9.58278472 -0.0625 6.375 C-0.05347656 5.18648438 -0.04445313 3.99796875 -0.03515625 2.7734375 C-0.02355469 1.85820313 -0.01195313 0.94296875 0 0 Z " fill="#BABDBB" transform="translate(109,78)"/>
<path d="M0 0 C4 0 4 0 6 1 C3.36 2.98 0.72 4.96 -2 7 C-2.66 6.67 -3.32 6.34 -4 6 C-4 5.01 -4 4.02 -4 3 C-3.01 3 -2.02 3 -1 3 C-0.67 2.01 -0.34 1.02 0 0 Z " fill="#92A690" transform="translate(80,65)"/>
<path d="M0 0 C0.66 0 1.32 0 2 0 C2 2.31 2 4.62 2 7 C1.01 7 0.02 7 -1 7 C-1 6.34 -1 5.68 -1 5 C-2.65 4.67 -4.3 4.34 -6 4 C-6 3.67 -6 3.34 -6 3 C-5.195625 2.87625 -4.39125 2.7525 -3.5625 2.625 C-2.716875 2.41875 -1.87125 2.2125 -1 2 C-0.67 1.34 -0.34 0.68 0 0 Z " fill="#182913" transform="translate(73,139)"/>
<path d="M0 0 C0.66 0.33 1.32 0.66 2 1 C1.34 2.65 0.68 4.3 0 6 C-1.66611905 6.042721 -3.33382885 6.04063832 -5 6 C-5.33 5.67 -5.66 5.34 -6 5 C-7.99958364 4.95919217 -10.00045254 4.95745644 -12 5 C-8.49235307 3.03571772 -4.85305811 2.09048815 -1 1 C-0.67 0.67 -0.34 0.34 0 0 Z " fill="#818181" transform="translate(134,111)"/>
<path d="M0 0 C1.32 0 2.64 0 4 0 C4.33 1.32 4.66 2.64 5 4 C5.66 4 6.32 4 7 4 C6.67 5.32 6.34 6.64 6 8 C1.3125 4.38671875 1.3125 4.38671875 0 3 C0 2.01 0 1.02 0 0 Z " fill="#99B29A" transform="translate(61,73)"/>
<path d="M0 0 C0.99 0.33 1.98 0.66 3 1 C2.67 1.66 2.34 2.32 2 3 C2.99 2.67 3.98 2.34 5 2 C5.33 2.66 5.66 3.32 6 4 C6.99 4.66 7.98 5.32 9 6 C1.49230769 5.38461538 1.49230769 5.38461538 -1 3.4375 C-1.33 2.963125 -1.66 2.48875 -2 2 C-1.34 1.34 -0.68 0.68 0 0 Z " fill="#B4BEB1" transform="translate(115,178)"/>
<path d="M0 0 C1.23556641 0.01740234 1.23556641 0.01740234 2.49609375 0.03515625 C3.32238281 0.04417969 4.14867188 0.05320313 5 0.0625 C5.63808594 0.07410156 6.27617188 0.08570313 6.93359375 0.09765625 C3.76792802 2.20810007 1.4216196 2.85317702 -2.25390625 3.72265625 C-3.34058594 3.98304688 -4.42726563 4.2434375 -5.546875 4.51171875 C-6.37832031 4.70507812 -7.20976563 4.8984375 -8.06640625 5.09765625 C-8.06640625 4.43765625 -8.06640625 3.77765625 -8.06640625 3.09765625 C-7.26203125 2.78828125 -6.45765625 2.47890625 -5.62890625 2.16015625 C-0.47303276 0.02235505 -0.47303276 0.02235505 0 0 Z " fill="#809983" transform="translate(119.06640625,168.90234375)"/>
<path d="M0 0 C3.94794145 1.67028292 6.81796118 4.1795565 10 7 C10 7.33 10 7.66 10 8 C7.03 7.67 4.06 7.34 1 7 C1.99 6.34 2.98 5.68 4 5 C2.68 3.35 1.36 1.7 0 0 Z " fill="#DDECDE" transform="translate(43,71)"/>
<path d="M0 0 C0.66 0 1.32 0 2 0 C2.99 1.98 3.98 3.96 5 6 C4.34 6.66 3.68 7.32 3 8 C2.01 8 1.02 8 0 8 C0 5.36 0 2.72 0 0 Z " fill="#8FA994" transform="translate(74,50)"/>
<path d="M0 0 C0.33 0.99 0.66 1.98 1 3 C1.99 3.33 2.98 3.66 4 4 C3.01 4.99 2.02 5.98 1 7 C0.67 5.35 0.34 3.7 0 2 C-3.3 2.66 -6.6 3.32 -10 4 C-7.93026888 -0.13946223 -4.25879356 -0.23659964 0 0 Z " fill="#030704" transform="translate(100,48)"/>
<path d="M0 0 C0 0.99 0 1.98 0 3 C-6.4 4.35384615 -6.4 4.35384615 -9.4375 2.5625 C-9.953125 2.046875 -10.46875 1.53125 -11 1 C-7.32589215 -0.17571451 -3.83070817 -0.07366746 0 0 Z " fill="#76977B" transform="translate(40,114)"/>
<path d="M0 0 C0 0.66 0 1.32 0 2 C1.65 2 3.3 2 5 2 C5 2.66 5 3.32 5 4 C3.5629191 4.05422947 2.12524538 4.09289723 0.6875 4.125 C-0.11300781 4.14820312 -0.91351563 4.17140625 -1.73828125 4.1953125 C-4 4 -4 4 -7 2 C-4.35261084 0.5393715 -3.10551666 0 0 0 Z " fill="#384B3A" transform="translate(70,107)"/>
<path d="M0 0 C1.65 0 3.3 0 5 0 C4.01 0.495 4.01 0.495 3 1 C2.34786708 3.02463255 2.34786708 3.02463255 2 5 C3.98 5.66 5.96 6.32 8 7 C4.59068103 8.13643966 3.99664544 7.86747764 0.8125 6.5625 C0.09707031 6.27503906 -0.61835937 5.98757812 -1.35546875 5.69140625 C-2.16951172 5.34916016 -2.16951172 5.34916016 -3 5 C-2.505 4.54625 -2.01 4.0925 -1.5 3.625 C0.22609337 2.12364481 0.22609337 2.12364481 0 0 Z " fill="#7B9279" transform="translate(42,78)"/>
<path d="M0 0 C-0.33 2.64 -0.66 5.28 -1 8 C-1.99 7.34 -2.98 6.68 -4 6 C-6.15274948 6.30840599 -6.15274948 6.30840599 -8 7 C-2.65789474 0 -2.65789474 0 0 0 Z " fill="#60775E" transform="translate(83,75)"/>
<path d="M0 0 C0.99 0 1.98 0 3 0 C2.77139942 1.46184058 2.51629608 2.91955419 2.25 4.375 C2.04117188 5.59316406 2.04117188 5.59316406 1.828125 6.8359375 C1 9 1 9 -1.078125 10.2890625 C-2.02945313 10.64097656 -2.02945313 10.64097656 -3 11 C-3 10.01 -3 9.02 -3 8 C-2.01 8 -1.02 8 0 8 C0 7.236875 0 6.47375 0 5.6875 C0 3.79166667 0 1.89583333 0 0 Z " fill="#A2B6A1" transform="translate(93,54)"/>
<path d="M0 0 C3.16115776 1.36983503 3.9927092 1.9890638 6 5 C4.68 5.99 3.36 6.98 2 8 C0.93224776 6.03533587 -0.06553465 4.03144641 -1 2 C-0.67 1.34 -0.34 0.68 0 0 Z " fill="#4A7C5E" transform="translate(36,57)"/>
<path d="M0 0 C2.35171131 0.59861742 4.6859378 1.26924352 7 2 C7.33 2.66 7.66 3.32 8 4 C5.00519083 4.8723412 2.36424089 5.10829766 -0.75 5.0625 C-1.54921875 5.05347656 -2.3484375 5.04445313 -3.171875 5.03515625 C-3.77515625 5.02355469 -4.3784375 5.01195313 -5 5 C-5 4.67 -5 4.34 -5 4 C-1.535 3.505 -1.535 3.505 2 3 C1.34 2.01 0.68 1.02 0 0 Z " fill="#EAF7EF" transform="translate(36,120)"/>
<path d="M0 0 C2.375 -0.125 2.375 -0.125 5 0 C7.35953094 2.35953094 7.49141413 3.77895617 8 7 C7.34 7 6.68 7 6 7 C6 6.01 6 5.02 6 4 C3.69 3.34 1.38 2.68 -1 2 C-0.67 1.34 -0.34 0.68 0 0 Z " fill="#F4F8F1" transform="translate(55,49)"/>
<path d="M0 0 C5.4611399 0.35233161 5.4611399 0.35233161 8 1 C9.5 3.0625 9.5 3.0625 10 5 C8.68 5.33 7.36 5.66 6 6 C5.34 5.01 4.68 4.02 4 3 C1.94996045 1.80767387 1.94996045 1.80767387 0 1 C0 0.67 0 0.34 0 0 Z " fill="#575757" transform="translate(134,48)"/>
<path d="M0 0 C0.99 0 1.98 0 3 0 C2.67 1.65 2.34 3.3 2 5 C-0.31 5.66 -2.62 6.32 -5 7 C-4.24172908 5.82512964 -3.46792245 4.66027408 -2.6875 3.5 C-2.25824219 2.8503125 -1.82898438 2.200625 -1.38671875 1.53125 C-0.70029297 0.77328125 -0.70029297 0.77328125 0 0 Z " fill="#171B14" transform="translate(92,64)"/>
<path d="M0 0 C3.465 1.98 3.465 1.98 7 4 C7 4.99 7 5.98 7 7 C6.34 6.67 5.68 6.34 5 6 C4.67 6.66 4.34 7.32 4 8 C0 2.25 0 2.25 0 0 Z " fill="#A7BFA4" transform="translate(48,56)"/>
<path d="M0 0 C1.5625 1.25 1.5625 1.25 3 3 C2.875 5.125 2.875 5.125 2 7 C1.01 7.33 0.02 7.66 -1 8 C-1.33 5.69 -1.66 3.38 -2 1 C-1.34 0.67 -0.68 0.34 0 0 Z " fill="#DBEAD9" transform="translate(112,164)"/>
<path d="M0 0 C1.98 0.495 1.98 0.495 4 1 C4 3.64 4 6.28 4 9 C3.01 7.68 2.02 6.36 1 5 C0.34 5.99 -0.32 6.98 -1 8 C-0.67 5.36 -0.34 2.72 0 0 Z " fill="#608A6F" transform="translate(100,148)"/>
<path d="M0 0 C2.97 0.33 5.94 0.66 9 1 C7 3 7 3 3.375 3.125 C2.26125 3.08375 1.1475 3.0425 0 3 C0 2.01 0 1.02 0 0 Z " fill="#2C512D" transform="translate(56,129)"/>
<path d="M0 0 C1 3 1 3 0.22265625 5.04296875 C-0.16019531 5.75066406 -0.54304688 6.45835938 -0.9375 7.1875 C-1.31777344 7.90292969 -1.69804688 8.61835937 -2.08984375 9.35546875 C-2.54037109 10.16951172 -2.54037109 10.16951172 -3 11 C-3.66 9.68 -4.32 8.36 -5 7 C-4.525625 6.38125 -4.05125 5.7625 -3.5625 5.125 C-1.97582559 3.09294454 -1.97582559 3.09294454 -1 1 C-0.67 0.67 -0.34 0.34 0 0 Z " fill="#B6BFB8" transform="translate(117,100)"/>
<path d="M0 0 C2.83374881 3.20336822 3.5205537 5.78087253 4 10 C1.38472619 7.63379989 -0.26440562 5.057952 -2 2 C-1.34 1.34 -0.68 0.68 0 0 Z " fill="#879886" transform="translate(69,85)"/>
<path d="M0 0 C0.33 0 0.66 0 1 0 C1.21278058 4.46839215 0.59138085 7.82262526 -1 12 C-1.66 12 -2.32 12 -3 12 C-4.21386936 8.35839192 -3.6674695 7.66834531 -2.0625 4.3125 C-1.49208984 3.10013672 -1.49208984 3.10013672 -0.91015625 1.86328125 C-0.60980469 1.24839844 -0.30945313 0.63351563 0 0 Z " fill="#EEF8EC" transform="translate(69,52)"/>
<path d="M0 0 C2.31 0.33 4.62 0.66 7 1 C7.33 2.32 7.66 3.64 8 5 C7.01 5 6.02 5 5 5 C5 4.34 5 3.68 5 3 C4.01 3 3.02 3 2 3 C2 2.34 2 1.68 2 1 C1.34 0.67 0.68 0.34 0 0 Z " fill="#787878" transform="translate(193,182)"/>
<path d="M0 0 C0.33 0.99 0.66 1.98 1 3 C1.66 3 2.32 3 3 3 C4.38232443 4.62626404 5.71937515 6.2925002 7 8 C4.69 7.67 2.38 7.34 0 7 C0 4.69 0 2.38 0 0 Z " fill="#3B463E" transform="translate(109,175)"/>
<path d="M0 0 C0 2.97 0 5.94 0 9 C-0.66 9 -1.32 9 -2 9 C-2.33 6.36 -2.66 3.72 -3 1 C-1 0 -1 0 0 0 Z " fill="#96AE9A" transform="translate(111,166)"/>
<path d="M0 0 C-4.625 4 -4.625 4 -8 4 C-8 3.34 -8 2.68 -8 2 C-8.66 1.67 -9.32 1.34 -10 1 C-3.375 -1.125 -3.375 -1.125 0 0 Z " fill="#BAD0BA" transform="translate(137,168)"/>
<path d="M0 0 C1.5625 1.8125 1.5625 1.8125 3 4 C2.67 4.99 2.34 5.98 2 7 C1.67 6.01 1.34 5.02 1 4 C0.01 4.66 -0.98 5.32 -2 6 C-2.99 5.67 -3.98 5.34 -5 5 C-3.35 3.35 -1.7 1.7 0 0 Z " fill="#D7DCDA" transform="translate(142,164)"/>
<path d="M0 0 C2.31 0 4.62 0 7 0 C7.33 0.99 7.66 1.98 8 3 C4.37673261 4.2077558 3.35853631 3.54311128 0 2 C0 1.34 0 0.68 0 0 Z " fill="#425C4D" transform="translate(31,125)"/>
<path d="M0 0 C7.42857143 1 7.42857143 1 11 2 C11 2.66 11 3.32 11 4 C11.66 4.33 12.32 4.66 13 5 C8.39146203 4.27991594 4.32762591 2.68704061 0 1 C0 0.67 0 0.34 0 0 Z " fill="#21442A" transform="translate(57,100)"/>
<path d="M0 0 C1.32 0.33 2.64 0.66 4 1 C3.67 3.64 3.34 6.28 3 9 C0.23776722 6.23776722 0.42143709 3.79293383 0 0 Z " fill="#0E2510" transform="translate(71,85)"/>
<path d="M0 0 C0.99 0.33 1.98 0.66 3 1 C2.79375 1.598125 2.5875 2.19625 2.375 2.8125 C1.69328085 5.28450846 1.69328085 5.28450846 4 8 C2.35 7.67 0.7 7.34 -1 7 C-1.33 6.01 -1.66 5.02 -2 4 C-1.34 4 -0.68 4 0 4 C0 2.68 0 1.36 0 0 Z " fill="#A0B7A3" transform="translate(41,63)"/>
<path d="M0 0 C0.66 0.66 1.32 1.32 2 2 C1.01 4.31 0.02 6.62 -1 9 C-1.66 9 -2.32 9 -3 9 C-2.5020163 5.26512223 -2.12508244 3.18762365 0 0 Z " fill="#AABEAB" transform="translate(71,55)"/>
<path d="M0 0 C1.98 0.99 3.96 1.98 6 3 C5.67 3.99 5.34 4.98 5 6 C4.01 6.33 3.02 6.66 2 7 C2 6.01 2 5.02 2 4 C1.34 4 0.68 4 0 4 C0 2.68 0 1.36 0 0 Z " fill="#80958C" transform="translate(30,46)"/>
<path d="M0 0 C1.32 0.66 2.64 1.32 4 2 C1.69 3.65 -0.62 5.3 -3 7 C-2.25 2.25 -2.25 2.25 0 0 Z " fill="#7A8B78" transform="translate(117,163)"/>
<path d="M0 0 C0.66 0.33 1.32 0.66 2 1 C2.73075648 3.3140622 3.40138258 5.64828869 4 8 C2.35 8 0.7 8 -1 8 C-1 6.68 -1 5.36 -1 4 C-0.34 4 0.32 4 1 4 C0.67 2.68 0.34 1.36 0 0 Z " fill="#6A6A6A" transform="translate(179,158)"/>
<path d="M0 0 C0.66 0 1.32 0 2 0 C2 0.99 2 1.98 2 3 C2.66 3 3.32 3 4 3 C4.99 4.98 5.98 6.96 7 9 C6.01 9 5.02 9 4 9 C0 2.25 0 2.25 0 0 Z " fill="#A9B89C" transform="translate(58,146)"/>
<path d="M0 0 C7.50769231 0.49230769 7.50769231 0.49230769 10 3.0625 C10.33 3.701875 10.66 4.34125 11 5 C6.87248551 4.39301257 3.6678852 2.96189209 0 1 C0 0.67 0 0.34 0 0 Z " fill="#729870" transform="translate(51,131)"/>
<path d="M0 0 C0.33 0.66 0.66 1.32 1 2 C1.66 2.33 2.32 2.66 3 3 C2.01 3.495 2.01 3.495 1 4 C1.33 4.66 1.66 5.32 2 6 C0.02 6.33 -1.96 6.66 -4 7 C-4 6.34 -4 5.68 -4 5 C-3.01 5 -2.02 5 -1 5 C-0.67 3.35 -0.34 1.7 0 0 Z " fill="#425641" transform="translate(71,122)"/>
<path d="M0 0 C0.66 0 1.32 0 2 0 C2.33 1.65 2.66 3.3 3 5 C-0.63 4.67 -4.26 4.34 -8 4 C-8 3.67 -8 3.34 -8 3 C-6.865625 2.87625 -5.73125 2.7525 -4.5625 2.625 C-3.386875 2.41875 -2.21125 2.2125 -1 2 C-0.67 1.34 -0.34 0.68 0 0 Z " fill="#4B5E50" transform="translate(72,98)"/>
<path d="M0 0 C0.66 0 1.32 0 2 0 C2 0.99 2 1.98 2 3 C2.66 3 3.32 3 4 3 C4 3.99 4 4.98 4 6 C2.68 6.33 1.36 6.66 0 7 C0 4.69 0 2.38 0 0 Z " fill="#334329" transform="translate(70,144)"/>
<path d="M0 0 C1.11375 0.556875 1.11375 0.556875 2.25 1.125 C1.26 1.455 0.27 1.785 -0.75 2.125 C-1.08 2.785 -1.41 3.445 -1.75 4.125 C-3.4 3.135 -5.05 2.145 -6.75 1.125 C-4.02098495 -0.69434337 -3.21400584 -1.02263822 0 0 Z " fill="#627B60" transform="translate(63.75,105.875)"/>
<path d="M0 0 C0.66 0.33 1.32 0.66 2 1 C1.67 2.32 1.34 3.64 1 5 C-0.98 5 -2.96 5 -5 5 C-4.01 4.67 -3.02 4.34 -2 4 C-2 3.01 -2 2.02 -2 1 C-1.34 0.67 -0.68 0.34 0 0 Z " fill="#5B705E" transform="translate(70,96)"/>
<path d="M0 0 C0.66 0 1.32 0 2 0 C2.66 1.32 3.32 2.64 4 4 C2.68 5.65 1.36 7.3 0 9 C0 6.03 0 3.06 0 0 Z " fill="#5A725F" transform="translate(75,86)"/>
<path d="M0 0 C2.31 0 4.62 0 7 0 C7 0.99 7 1.98 7 3 C4.69 2.67 2.38 2.34 0 2 C0 1.34 0 0.68 0 0 Z " fill="#98A899" transform="translate(33,84)"/>
<path d="M0 0 C1.9375 0.3125 1.9375 0.3125 4 1 C4.33 1.99 4.66 2.98 5 4 C2.69 3.67 0.38 3.34 -2 3 C-1.34 2.67 -0.68 2.34 0 2 C0 1.34 0 0.68 0 0 Z " fill="#264A2E" transform="translate(61,78)"/>
<path d="M0 0 C0.66 1.32 1.32 2.64 2 4 C0.02 4.33 -1.96 4.66 -4 5 C-4.33 4.34 -4.66 3.68 -5 3 C-3.35 2.01 -1.7 1.02 0 0 Z " fill="#070707" transform="translate(158,177)"/>
<path d="M0 0 C1.98 0.99 1.98 0.99 4 2 C4 4.31 4 6.62 4 9 C1 5.25 1 5.25 1 3 C0.67 2.01 0.34 1.02 0 0 Z " fill="#020A05" transform="translate(105,173)"/>
<path d="M0 0 C-2.40921705 2.40921705 -4.94334509 3.53812156 -8 5 C-6.19780722 -0.02039417 -5.34443412 -1.60333024 0 0 Z " fill="#C2D2C2" transform="translate(128,175)"/>
<path d="M0 0 C0.66 0.66 1.32 1.32 2 2 C-2.41225737 3.47075246 -5.48281619 4.36884358 -10 3 C-6.73602552 1.1169378 -3.75561867 0.32657554 0 0 Z " fill="#9DB49F" transform="translate(127,172)"/>
<path d="M0 0 C1.65 0.33 3.3 0.66 5 1 C5 1.99 5 2.98 5 4 C2.69 3.67 0.38 3.34 -2 3 C-1.34 2.01 -0.68 1.02 0 0 Z " fill="#B1CCB5" transform="translate(116,172)"/>
<path d="M0 0 C1.32 1.32 2.64 2.64 4 4 C3.01 5.485 3.01 5.485 2 7 C1.34 6.67 0.68 6.34 0 6 C-0.6875 3.5 -0.6875 3.5 -1 1 C-0.67 0.67 -0.34 0.34 0 0 Z " fill="#6F7562" transform="translate(69,158)"/>
<path d="M0 0 C2.31 0.33 4.62 0.66 7 1 C6.34 2.32 5.68 3.64 5 5 C2 4 2 4 0.8125 1.9375 C0.544375 1.298125 0.27625 0.65875 0 0 Z " fill="#78987F" transform="translate(41,131)"/>
<path d="M0 0 C4.455 2.97 4.455 2.97 9 6 C7.68 6.33 6.36 6.66 5 7 C2.25 4.6875 2.25 4.6875 0 2 C0 1.34 0 0.68 0 0 Z " fill="#33493A" transform="translate(39,89)"/>
<path d="M0 0 C0.99 0.66 1.98 1.32 3 2 C0.6875 3.5625 0.6875 3.5625 -2 5 C-2.99 4.67 -3.98 4.34 -5 4 C-3.35 2.68 -1.7 1.36 0 0 Z " fill="#91AC8F" transform="translate(73,79)"/>
<path d="M0 0 C3.3 0.99 6.6 1.98 10 3 C8.02 3.99 8.02 3.99 6 5 C3.98079663 3.69593116 1.98075027 2.36176581 0 1 C0 0.67 0 0.34 0 0 Z " fill="#5C8467" transform="translate(50,75)"/>
<path d="M0 0 C2 1 2 1 3 3 C2.5625 5.125 2.5625 5.125 2 7 C1.01 7 0.02 7 -1 7 C-0.67 4.69 -0.34 2.38 0 0 Z " fill="#C4DCC4" transform="translate(57,64)"/>
<path d="M0 0 C0.99 0 1.98 0 3 0 C3 2.64 3 5.28 3 8 C2.34 7.67 1.68 7.34 1 7 C0.59270772 4.67843403 0.25561323 2.3431213 0 0 Z " fill="#090909" transform="translate(148,63)"/>
<path d="M0 0 C0.66 0.66 1.32 1.32 2 2 C1.01 2.33 0.02 2.66 -1 3 C-0.67 3.99 -0.34 4.98 0 6 C-1.32 6 -2.64 6 -4 6 C-3.67 4.35 -3.34 2.7 -3 1 C-2.01 0.67 -1.02 0.34 0 0 Z " fill="#C6DFC6" transform="translate(79,59)"/>
<path d="M0 0 C1.32 0.33 2.64 0.66 4 1 C4.625 2.875 4.625 2.875 5 5 C4.34 5.66 3.68 6.32 3 7 C3 6.34 3 5.68 3 5 C2.34 5 1.68 5 1 5 C0.67 3.35 0.34 1.7 0 0 Z " fill="#616161" transform="translate(137,153)"/>
<path d="M0 0 C0.66 0.33 1.32 0.66 2 1 C2 3.31 2 5.62 2 8 C1.01 8 0.02 8 -1 8 C-1.125 2.25 -1.125 2.25 0 0 Z " fill="#576E41" transform="translate(67,143)"/>
<path d="M0 0 C0.99 0 1.98 0 3 0 C3 1.98 3 3.96 3 6 C1.68 5.67 0.36 5.34 -1 5 C-0.67 3.35 -0.34 1.7 0 0 Z " fill="#2F3D30" transform="translate(72,123)"/>
<path d="M0 0 C1.32 0.33 2.64 0.66 4 1 C4 2.32 4 3.64 4 5 C2.02 4.34 0.04 3.68 -2 3 C-1.34 2.01 -0.68 1.02 0 0 Z " fill="#5D6F51" transform="translate(65,120)"/>
</svg>
